<svg width="210" height="126" viewBox="0 0 210 126" fill="none" xmlns="http://www.w3.org/2000/svg">
<path d="M37.7087 87.9129C37.8355 87.3555 38.6017 85.4727 38.9671 84.7233C39.6419 83.3405 40.7425 81.5759 41.6274 80.3242C44.4237 76.3664 48.8859 72.116 52.3775 68.8854C61.4822 60.4642 78.2312 50.2877 94.9906 48.3779C114.904 46.1087 136.68 51.5113 152.327 64.8821C157.141 68.9967 160.975 72.7436 164.781 77.7271C166.31 79.7293 169.082 83.9646 170.313 85.7127" stroke="#320078" stroke-width="3.82725" stroke-miterlimit="1.5" stroke-linecap="round" stroke-linejoin="round"/>
<path d="M37.7087 88.0294C37.9131 88.3787 39.3415 90.9094 40.1317 91.9925C41.9825 94.5327 44.925 97.7127 47.1892 99.8072C54.9089 106.948 65.4431 114.785 75.3573 117.443C102.24 124.648 132.696 124.232 154.806 104.712C159.444 100.619 163.633 96.2003 167.156 91.2658C168.311 89.6476 169.514 87.5307 170.331 85.8149" stroke="#320078" stroke-width="3.82398" stroke-miterlimit="1.5" stroke-linecap="round" stroke-linejoin="round"/>
<path fill-rule="evenodd" clip-rule="evenodd" d="M107.145 47.909C103.857 47.735 102.677 47.7021 100.558 47.9643C95.2913 48.6182 89.76 49.2638 85.1952 52.0757C79.5744 55.5378 74.5955 59.1423 71.2683 65.0459C65.4112 75.4349 64.8813 90.3644 68.9878 101.157C70.5642 105.3 74.5597 110.107 77.8034 113.305C87.1631 122.528 101.75 122.592 114.279 121.358C117.569 121.034 120.697 119.692 123.653 118.397C127.487 116.719 132.094 114.379 134.591 110.935C144.06 97.8709 144.521 79.5674 136.634 65.5763C131.075 55.7178 118.924 48.5288 107.145 47.909Z" stroke="#320078" stroke-width="3.82649" stroke-miterlimit="1.5" stroke-linecap="round" stroke-linejoin="round"/>
<path d="M102.683 60.1289C102.629 60.5838 102.626 61.3165 102.626 61.9114C102.626 63.2308 102.513 64.5382 102.513 65.8648C102.513 69.7709 102.712 73.6699 103.184 77.5207C103.826 82.7473 103.55 88.1007 104.191 93.3323C104.941 99.4466 106.093 105.204 106.093 111.374" stroke="#320078" stroke-width="3.81739" stroke-miterlimit="1.5" stroke-linecap="round" stroke-linejoin="round"/>
<path d="M80.2368 89.0653C81.6122 88.9264 82.9277 88.8318 84.7131 88.6597C88.6705 88.2783 92.8501 88.1585 96.7964 87.4429C108.591 85.3062 121.357 85.3303 132.488 81.9697" stroke="#320078" stroke-width="3.81739" stroke-miterlimit="1.5" stroke-linecap="round" stroke-linejoin="round"/>
<path d="M120.292 68.6909C119.204 69.6813 117.978 71.354 117.065 72.5356C114.887 75.3537 112.422 78.1839 110.015 80.847C105.562 85.7777 100.886 90.5444 96.2532 95.3412C93.7079 97.9781 90.4837 101.123 88.645 104.058" stroke="#320078" stroke-width="3.81739" stroke-miterlimit="1.5" stroke-linecap="round" stroke-linejoin="round"/>
<path d="M86.9531 70.1265C87.5142 71.0715 89.0807 72.8671 89.5262 73.3512C92.2704 76.3354 94.8013 79.4474 97.8055 82.1699C103.685 87.4961 109.428 92.7619 115.932 97.4742C117.746 98.7897 119.335 100.369 121.19 101.63C121.599 101.908 122.705 102.692 123.508 103.131" stroke="#320078" stroke-width="3.81739" stroke-miterlimit="1.5" stroke-linecap="round" stroke-linejoin="round"/>
<path d="M28.7622 54.95C30.0826 50.7381 32.1831 47.157 33.4802 45.1907C40.4882 34.5663 49.1526 26.6963 60.3048 20.3475C69.1105 15.3356 79.5925 10.789 90.5302 9.28798C120.041 5.24171 147.886 12.8055 166.507 34.6651C170.937 39.866 175.24 46.3939 177.954 52.7662C178.178 53.295 178.492 54.0731 178.82 54.9768" stroke="#FFB400" stroke-width="13.8961" stroke-miterlimit="1.5" stroke-linecap="round" stroke-linejoin="round"/>
<path fill-rule="evenodd" clip-rule="evenodd" d="M32.4079 67.869C32.4046 67.0005 31.7603 66.2659 30.8985 66.1505C26.9024 65.6083 21.3133 65.0828 16.1726 66.6943C10.3793 68.5116 3.97856 72.4625 1.49189 78.793C-1.85825 87.3223 0.583214 99.6335 7.31697 104.876C9.60785 106.66 12.9045 108.101 15.5267 108.824C18.8668 109.742 21.0773 109.915 25.808 110.106C26.7552 110.144 30.7429 110 30.9738 109.978C31.3738 109.938 32.0347 109.788 32.4079 108.934C32.443 108.852 32.5719 108.437 32.5853 107.719C32.6439 104.506 32.2539 88.2443 32.3493 83.0166C32.4129 79.4523 32.2891 75.9147 32.3527 72.3738C32.3611 71.9756 32.4113 68.5518 32.4079 67.869Z" fill="#E64632"/>
<mask id="mask0_14:1879" style="mask-type:alpha" maskUnits="userSpaceOnUse" x="0" y="65" width="33" height="46">
<path fill-rule="evenodd" clip-rule="evenodd" d="M32.4079 67.869C32.4046 67.0005 31.7603 66.2659 30.8985 66.1505C26.9024 65.6083 21.3133 65.0828 16.1726 66.6943C10.3793 68.5116 3.97856 72.4625 1.49189 78.793C-1.85825 87.3223 0.583214 99.6335 7.31697 104.876C9.60785 106.66 12.9045 108.101 15.5267 108.824C18.8668 109.742 21.0773 109.915 25.808 110.106C26.7552 110.144 30.7429 110 30.9738 109.978C31.3738 109.938 32.0347 109.788 32.4079 108.934C32.443 108.852 32.5719 108.437 32.5853 107.719C32.6439 104.506 32.2539 88.2443 32.3493 83.0166C32.4129 79.4523 32.2891 75.9147 32.3527 72.3738C32.3611 71.9756 32.4113 68.5518 32.4079 67.869Z" fill="#E64632"/>
</mask>
<g mask="url(#mask0_14:1879)">
<path d="M12.8931 60.8035C15.2743 60.5994 13.8268 64.2926 13.4821 65.8455C12.4479 70.5026 11.792 75.1713 11.792 79.9238C11.792 92.6316 13.4821 104.819 13.4821 117.654" stroke="#FCF3E4" stroke-width="3.83208" stroke-miterlimit="1.5" stroke-linecap="round" stroke-linejoin="round"/>
<path d="M22.1228 62.1284C26.8451 80.6395 21.7045 102.123 26.4268 121.01" stroke="#FCF3E4" stroke-width="3.83208" stroke-miterlimit="1.5" stroke-linecap="round" stroke-linejoin="round"/>
</g>
<path fill-rule="evenodd" clip-rule="evenodd" d="M178.315 66.2017C177.453 66.3172 176.81 67.0518 176.805 67.9203C176.804 68.6031 176.854 72.0268 176.861 72.4251C176.924 75.966 176.802 79.5036 176.866 83.0679C176.959 88.2956 176.571 104.558 176.63 107.771C176.643 108.489 176.772 108.904 176.807 108.985C177.18 109.839 177.839 109.99 178.241 110.03C178.47 110.051 182.46 110.195 183.407 110.157C188.136 109.966 190.348 109.794 193.688 108.875C196.31 108.152 199.607 106.711 201.896 104.928C208.632 99.6848 211.073 87.3736 207.723 78.8443C205.235 72.5138 198.836 68.5629 193.042 66.7456C187.902 65.1341 182.312 65.6595 178.315 66.2017Z" fill="#E64632"/>
<mask id="mask1_14:1879" style="mask-type:alpha" maskUnits="userSpaceOnUse" x="176" y="65" width="34" height="46">
<path fill-rule="evenodd" clip-rule="evenodd" d="M178.315 66.2017C177.453 66.3172 176.81 67.0518 176.805 67.9203C176.804 68.6031 176.854 72.0268 176.861 72.4251C176.924 75.966 176.802 79.5036 176.866 83.0679C176.959 88.2956 176.571 104.558 176.63 107.771C176.643 108.489 176.772 108.904 176.807 108.985C177.18 109.839 177.839 109.99 178.241 110.03C178.47 110.051 182.46 110.195 183.407 110.157C188.136 109.966 190.348 109.794 193.688 108.875C196.31 108.152 199.607 106.711 201.896 104.928C208.632 99.6848 211.073 87.3736 207.723 78.8443C205.235 72.5138 198.836 68.5629 193.042 66.7456C187.902 65.1341 182.312 65.6595 178.315 66.2017Z" fill="#E64632"/>
</mask>
<g mask="url(#mask1_14:1879)">
<path d="M187.492 60.0776C185.423 63.4696 186.334 71.8215 186.334 75.9983C186.334 89.2232 187.493 102.149 187.493 115.44" stroke="#FCF3E4" stroke-width="3.83208" stroke-miterlimit="1.5" stroke-linecap="round" stroke-linejoin="round"/>
<path d="M197.712 63.0513C197.069 82.4359 197.225 102.055 197.225 121.488" stroke="#FCF3E4" stroke-width="3.83208" stroke-miterlimit="1.5" stroke-linecap="round" stroke-linejoin="round"/>
</g>
<path d="M180.983 16.8904C181.452 16.3296 182.234 15.7113 182.659 15.2103C183.686 14.0032 186.757 11.2192 187.648 10.4555" stroke="#320078" stroke-width="3.82879" stroke-miterlimit="1.5" stroke-linecap="round" stroke-linejoin="round"/>
<path d="M190.031 22.3079C191.296 21.7842 195.69 19.5954 197.68 18.9595" stroke="#320078" stroke-width="3.83208" stroke-miterlimit="1.5" stroke-linecap="round" stroke-linejoin="round"/>
<path d="M192.773 30.5889C193.632 30.5203 199.89 29.8359 201.36 29.7773" stroke="#320078" stroke-width="3.83208" stroke-miterlimit="1.5" stroke-linecap="round" stroke-linejoin="round"/>
</svg>
