<svg fill="none" xmlns="http://www.w3.org/2000/svg" viewBox="198.8 226.8 602.4 487.4"> <path fill-rule="evenodd" clip-rule="evenodd" d="M332.116 334.754C327.512 328.489 323.19 321.985 318.946 315.528C317.555 313.404 315.181 310.015 312.879 306.292C307.46 297.532 295.932 294.811 287.162 300.229C278.386 305.647 275.664 317.157 281.089 325.923C283.601 329.98 286.179 333.692 287.695 336.007C294.829 346.861 302.208 357.792 310.505 367.823C313.616 371.582 319.239 376.463 324.748 378.379C332.823 381.177 341.21 380.455 348.799 372.901C356.209 365.526 362.125 357.542 367.682 348.699C371.639 342.392 374.972 335.279 378.94 328.835C381.932 323.978 385.013 319.085 391.595 318.267C394.221 317.939 397.134 318.697 399.676 319.294C403.183 320.117 406.438 321.072 409.615 322.814C422.144 329.67 431.484 343.155 436.543 356.557C429.697 354.457 423.193 349.176 418.685 344.283C416.611 342.028 414.141 338.901 412.517 336.329C407.019 327.618 395.468 324.998 386.745 330.494C378.017 335.989 375.397 347.523 380.901 356.235C383.616 360.537 387.711 365.788 391.181 369.553C404.298 383.797 426.874 396.303 446.884 394.645C472.715 392.502 479.543 367.095 472.967 347.446C465.36 324.729 448.898 301.745 427.581 290.079C421.359 286.672 415.076 284.56 408.206 282.949C401.552 281.391 393.831 280.365 386.973 281.218C370.236 283.301 359.344 291.935 350.981 303.451C345.322 311.25 341.144 320.696 336.018 328.865C334.748 330.881 333.459 332.851 332.116 334.754Z" fill="#FF6E00"></path> <path d="M399.508 324.06C398.551 321.568 397.546 317.17 397.336 316.001C397.092 314.664 396.844 313.38 396.579 312.073C395.893 308.717 396.639 306.95 394.353 304.947C393.18 303.915 391.327 303.437 389.836 304.285C388.339 305.139 387.539 306.521 387.302 307.616C386.659 310.548 386.837 315.419 387.399 319.515" stroke="#320078" stroke-width="2.4" stroke-linecap="round" stroke-linejoin="round"></path> <path d="M387.167 308.08C384.897 306.091 382.25 309.018 381.401 310.044C378.575 313.489 380.461 319.756 382.066 323.176" stroke="#320078" stroke-width="2.4" stroke-linecap="round" stroke-linejoin="round"></path> <path d="M380.266 312.176C379.796 312.591 378.726 313.523 378.456 313.77C377.586 314.565 376.857 315.596 376.468 316.662C375.16 320.25 376.533 324.272 378.002 327.632" stroke="#320078" stroke-width="2.4" stroke-linecap="round" stroke-linejoin="round"></path> <path d="M376.014 318.547C375.457 319.09 374.749 319.756 374.479 320.127C373.669 321.237 373.107 322.426 372.766 323.67C371.88 326.897 373.744 330.821 375.019 333.737" stroke="#320078" stroke-width="2.4" stroke-linecap="round" stroke-linejoin="round"></path> <path d="M372.583 324.736C371.761 325.318 371.318 325.767 371.021 326.039C369.881 327.08 369.152 329.049 368.881 330.539C368.017 335.262 371.534 343.237 374.387 347.145" stroke="#320078" stroke-width="2.4" stroke-linecap="round" stroke-linejoin="round"></path> <path d="M397.074 312.462C397.608 311.399 398.195 310.134 398.813 309.114C400.719 305.946 402.05 302.389 404.442 300.008C404.58 299.871 409.297 302.342 410.371 302.873C415.208 305.277 419.111 307.736 423.529 310.88C424.554 311.602 427.659 313.577 427.659 313.744C427.659 314.108 426.7 315.159 426.472 315.421C425.561 316.477 424.77 317.718 423.99 318.876C421.263 322.945 417.33 328.525 415.412 334.14" stroke="#320078" stroke-width="2.4" stroke-linecap="round" stroke-linejoin="round"></path> <path d="M414.908 299.03C418.163 300.504 434.061 309.633 436.477 314.443C436.699 314.884 432.257 319.091 431.028 320.654C427.341 325.344 426.1 326.991 423.169 332.869C422.21 334.802 420.963 337.791 420.064 340.28" stroke="#320078" stroke-width="2.4" stroke-linecap="round" stroke-linejoin="round"></path> <path d="M397.104 255.339C397.763 254.588 398.866 254.265 399.538 254.331C403.099 254.659 404.381 259.081 403.884 261.318C403.428 263.389 401.816 265.024 400.407 265.489C400.167 265.573 398.914 265.853 397.745 265.633C397.284 265.543 397.565 267.942 397.691 269.732C397.925 273.02 397.889 273.402 398.537 277.399" stroke="#320078" stroke-width="2.4" stroke-linecap="round" stroke-linejoin="round"></path> <path d="M389.833 267.232C389.041 267.53 388.406 267.673 387.003 267.787C385.66 267.888 383.916 268.025 382.717 267.303C379.636 265.466 379.822 260.03 380.265 256.545C380.781 252.475 381.938 251.258 382.261 249.856" stroke="#320078" stroke-width="2.4" stroke-linecap="round" stroke-linejoin="round"></path> <path d="M392.524 249.963C389.97 250.154 386.398 250.709 383.832 249.009C378.844 245.697 383.047 240.07 387.321 239.008C391.025 238.083 398.723 239.676 400.809 242.791C402.451 245.243 402.577 246.425 402.757 249.289" stroke="#320078" stroke-width="2.4" stroke-linecap="round" stroke-linejoin="round"></path> <path d="M302.946 277.298C303.066 277.304 296.639 270.436 296.19 269.989C294.146 267.96 292.461 265.597 290.399 263.538C286.005 259.165 284.452 254.111 281.101 249.104C280.022 247.493 276.491 245.745 274.099 248.048C271.186 250.865 271.402 254.409 272.889 257.363C274.993 261.551 277.762 266.158 279.231 270.538C280.262 273.629 279.531 279.393 278.542 282.346C276.965 287.054 279.369 292.711 279.369 297.306" stroke="#320078" stroke-width="2.4" stroke-linecap="round" stroke-linejoin="round"></path> <path d="M291.124 263.675C292.197 263.801 300.704 264.397 301.921 264.397C305.931 264.397 309.816 264.69 313.778 264.994C316.356 265.191 319.083 264.982 321.403 266.14C323.076 266.969 323.142 272.047 320.684 272.453C315.463 273.318 305.212 273.097 299.882 273.097" stroke="#320078" stroke-width="2.4" stroke-linecap="round" stroke-linejoin="round"></path> <path d="M274.909 262.709C271.384 262.536 265.946 262.273 263.501 262.124C261.229 261.981 258.759 261.987 256.487 261.861C255.744 261.819 254.077 261.873 253.903 262.034C253.549 262.368 247.327 265.06 247.363 265.089C248.268 265.943 252.027 268.878 252.752 269.242C253.382 269.553 254.886 269.583 255.857 269.612C258.801 269.702 261.912 269.827 264.855 269.935C269.184 270.09 274.591 270.203 277.75 270.203" stroke="#320078" stroke-width="2.4" stroke-linecap="round" stroke-linejoin="round"></path> <path d="M284.758 253.028C284.974 252.999 285.549 252.176 285.803 251.944C286.843 250.993 288.061 250.141 289.394 249.447C293.932 247.074 299.402 249.318 303.041 252.231C304.758 253.608 306.042 255.357 307.488 256.937C308.896 258.487 310.022 259.681 310.683 261.504C310.959 262.252 311.127 263.55 311.696 264.07C311.783 264.149 311.983 264.857 311.696 264.857" stroke="#320078" stroke-width="2.4" stroke-linecap="round" stroke-linejoin="round"></path> <path d="M312.291 274.637C312.051 279.84 310.553 285.532 309.953 290.891C309.767 292.603 310.031 295.127 309.264 296.649" stroke="#320078" stroke-width="2.4" stroke-linecap="round" stroke-linejoin="round"></path> <path d="M266.33 271.367C264.663 273.354 263.291 277.942 264.891 280.067C265.659 281.087 266.863 281.523 268.086 281.869C271.294 282.782 274.009 282.817 277.324 282.817" stroke="#320078" stroke-width="2.4" stroke-linecap="round" stroke-linejoin="round"></path> <path fill-rule="evenodd" clip-rule="evenodd" d="M569.779 452.438C558.391 454.548 543.127 457.483 534.249 456.051C513.573 452.715 509.804 438.246 504.066 426.291C496.831 411.213 498.633 380.667 509.638 371.759C514.885 367.513 519.901 364.357 522.713 362.251C527.357 358.771 542.053 349.886 543.379 349.09C551.791 344.052 559.391 341.775 566.905 341.513C574.94 341.232 583.3 343.092 592.8 348.922C601.538 354.284 605.598 357.428 613.33 362.275C616.112 364.02 618.937 365.827 621.55 367.785C632.881 376.273 635.181 392.354 626.683 403.671C618.186 414.988 607.92 430.517 592.716 441.123C586.117 445.727 582.802 450.025 569.779 452.438Z" fill="#0046DC"></path> <mask id="mask0_14:1635" style="mask-type:alpha" maskUnits="userSpaceOnUse" x="499" y="341" width="133" height="116"> <path d="M569.779 452.438C558.391 454.548 543.127 457.483 534.249 456.051C513.573 452.715 509.804 438.246 504.066 426.291C496.831 411.213 498.633 380.667 509.638 371.759C514.885 367.513 519.901 364.357 522.713 362.251C527.357 358.771 542.053 349.886 543.379 349.09C551.791 344.052 559.391 341.775 566.905 341.513C574.94 341.232 583.3 343.092 592.8 348.922C601.538 354.284 605.598 357.428 613.33 362.275C616.112 364.02 618.937 365.827 621.55 367.785C632.881 376.273 635.181 392.354 626.683 403.671C618.186 414.988 607.92 430.517 592.716 441.123C586.117 445.727 582.802 450.025 569.779 452.438Z" fill="white"></path> </mask> <g mask="url(#mask0_14:1635)"> <path d="M623.993 423.451C624.532 423.833 622.402 422.974 622.052 422.714C621.065 421.984 620.095 421.192 619.075 420.509C615.541 418.142 611.877 415.778 608.259 413.558C600.738 408.943 592.303 405.895 583.66 404.372C580.426 403.802 575.362 402.175 572.136 403.635C570.148 404.534 570.505 408.624 570.29 410.423C569.79 414.583 568.193 419.006 564.07 420.709C557.838 423.283 551.812 420.679 545.838 418.725C544.203 418.19 538.83 416.469 537.165 417.972C535.958 419.062 536.236 421.326 536.449 422.761C537.215 427.922 540.276 432.715 541.347 437.916C544.659 454.021 528.632 462.193 515.477 464.14" stroke="#FCF3E4" stroke-width="2.4"></path> <path d="M631.281 362.086C637.426 365.553 642 376.787 639.35 383.847C636.27 392.051 623.572 396.79 615.727 393.526C609.349 390.87 603.888 385.407 599.605 380.125C596.484 376.272 594.099 371.839 592.155 367.307C590.492 363.433 589.328 359.722 588.841 355.522C588.572 353.192 587.864 349.971 588.634 347.664C590.771 341.266 599.966 339.378 605.195 342.702C612.603 347.412 613.028 360.228 606.643 365.445C602.313 368.984 597.967 369.71 592.567 369.993C588.424 370.212 584.094 370.821 579.941 370.407C572.435 369.657 565.108 364.518 559.448 359.863C555.075 356.266 552.153 352.446 549.926 347.25C548.848 344.738 548.236 341.094 550.96 339.394C556.922 335.672 562.893 345.538 564.623 349.731C568.807 359.884 566.736 368.713 558.62 376.196C555.36 379.2 551.158 380.49 547.027 381.78C543.446 382.897 540.281 384.435 536.47 384.673C529.997 385.077 523.243 380.353 518.876 375.989C516.086 373.204 506.471 361.204 515.769 360.277C519.366 359.916 522.875 363.261 525.086 365.652C530.644 371.666 533.44 380.39 531.709 388.602C528.287 404.837 511.912 410.624 497.14 411.965C488.682 412.734 479.778 412.818 473.335 406.383" stroke="#FCF3E4" stroke-width="2.4"></path> </g> <path d="M565.076 318.604C569.715 320.828 582.59 318.439 579.085 311.439C578.112 309.493 575.255 307.815 573.202 307.303C570.282 306.575 566.771 304.772 563.61 305.562C557.993 306.964 550.752 310.434 550.752 316.664" stroke="#320078" stroke-width="2.4" stroke-linecap="round" stroke-linejoin="round"></path> <path d="M559.933 305.113C561.867 305.25 564.086 301.542 563.392 299.465C561.9 294.993 554.648 294.548 551.187 296.853C550.688 297.185 550.296 298.866 550.097 299.465C549.343 301.725 549.584 303.447 550.532 305.344C552.154 308.584 558.816 307.789 558.816 304.038" stroke="#320078" stroke-width="2.4" stroke-linecap="round" stroke-linejoin="round"></path> <path d="M580.783 321.046C581.668 321.362 581.145 325.289 580.995 326.191C580.323 330.204 579.882 333.132 575.778 334.498C573.637 335.211 571.399 333.538 569.574 332.808C568.876 332.529 567.178 332.207 567.178 331.118" stroke="#320078" stroke-width="2.4" stroke-linecap="round" stroke-linejoin="round"></path> <path d="M559.138 322.202C559.55 322.395 558.325 321.684 557.88 321.684C556.933 321.684 556.525 322.124 556.283 323.234C555.555 326.572 557.64 328.163 559.847 329.429" stroke="#320078" stroke-width="2.4" stroke-linecap="round" stroke-linejoin="round"></path> <path d="M631.481 368.368C631.976 367.828 632.817 366.84 633.343 366.315C635.059 364.599 636.474 362.737 638.005 360.825C642.524 355.184 647.123 347.935 650.33 341.529C651.537 339.118 653.064 335.382 653.327 334.709C653.502 334.264 652.812 332.845 652.662 332.546C651.839 330.903 651.241 329.888 650.163 328.221C648.86 326.205 646.148 323.576 645.084 321.386C643.175 317.447 643.302 314.935 642.284 311.646C641.861 310.278 640.405 306.46 641.171 304.932C642.594 302.086 646.431 303.39 648.498 304.766C651.679 306.884 653.719 310.85 655.659 314.082C656.405 315.323 657.756 317.814 657.992 319.071" stroke="#320078" stroke-width="2.4" stroke-linecap="round" stroke-linejoin="round"></path> <path d="M654.288 311.619C654.046 309.507 652.991 305.912 652.828 305.264C651.73 300.874 644.803 289.03 651.995 286.635C655.516 285.462 657.949 290.467 659.49 292.622C663.646 298.432 664.699 309.441 664.699 316.545" stroke="#320078" stroke-width="2.4" stroke-linecap="round" stroke-linejoin="round"></path> <path d="M656.251 286.114C658.998 280.725 665.309 283.944 667.485 289.296C669.322 293.82 670.758 298.428 671.314 303.435C671.774 307.555 670.99 312.189 670.482 316.243C670.333 317.435 669.893 319.436 669.505 320.576" stroke="#320078" stroke-width="2.4" stroke-linecap="round" stroke-linejoin="round"></path> <path d="M669.505 293.971C669.928 292.552 671.84 291.724 672.48 291.624C673.607 291.451 675.19 291.931 675.979 292.456C678.161 293.91 678.59 297.794 678.976 300.109C680.368 308.453 679.124 319.274 675.311 326.89" stroke="#320078" stroke-width="2.4" stroke-linecap="round" stroke-linejoin="round"></path> <path d="M679.516 305.586C680.819 305.695 681.938 304.52 683.305 305.43C687.514 308.233 686.169 319.241 684.638 323.063C678.267 338.97 668.058 352.014 658.382 366.272C654.633 371.798 643.569 386.798 640.914 389.892" stroke="#320078" stroke-width="2.4" stroke-linecap="round" stroke-linejoin="round"></path> <path fill-rule="evenodd" clip-rule="evenodd" d="M509.835 433.029L510.777 426.909L512.58 423.55L516.475 420.017H520.385L522.353 423.55L526.218 419.529L533.119 412.558L537.418 410.338L543.13 407.075L546.167 408.743L547.372 412.492L554.243 412.275L558.754 413.886L559.369 418.098L557.492 421.233L562.819 425.06L564.063 429.973L557.358 436.263L560.641 438.913L563.369 443.411L558.666 449.442L543.228 455.75L532.318 460.779L507.341 451.024L506.909 439.142L509.835 433.029Z" fill="#FDF4E6"></path> <path fill-rule="evenodd" clip-rule="evenodd" d="M687.277 563.521C685.921 574.456 684.622 585.244 683.251 596.538C681.236 613.158 679.705 625.981 677.961 642.998C677.631 646.219 676.798 652.948 676.658 656.18C676.246 665.548 668.33 672.816 658.994 672.402C649.659 671.989 642.411 664.052 642.823 654.689C642.988 650.968 643.894 643.226 644.276 639.527C646.04 622.276 647.59 609.279 649.634 592.436C652.788 566.47 655.559 543.191 659.43 514.613C660.951 503.374 661.417 499.272 666.179 486.476C668.664 479.801 675.122 474.399 684.172 474.181C688.517 474.073 693.347 475.438 696.404 477.163C700.236 479.333 702.601 482.309 703.928 484.904C707.484 491.857 709.499 498.581 711.258 506.35C717.042 531.902 720.439 557.706 724.813 583.607C727.022 596.712 728.926 609.954 730.976 623.092C732.264 631.383 733.892 641.708 735.152 650.554C736.474 659.83 730.036 668.442 720.787 669.769C711.534 671.097 702.949 664.639 701.627 655.358C700.387 646.654 698.788 636.497 697.514 628.342C695.489 615.34 693.609 602.24 691.419 589.275C689.971 580.68 688.634 572.09 687.277 563.521Z" fill="#FFB400"></path> <mask id="mask1_14:1635" style="mask-type:alpha" maskUnits="userSpaceOnUse" x="642" y="474" width="94" height="199"> <path d="M687.277 563.521C685.921 574.456 684.622 585.244 683.251 596.538C681.236 613.158 679.705 625.981 677.961 642.998C677.631 646.218 676.798 652.948 676.658 656.18C676.246 665.548 668.33 672.816 658.994 672.402C649.659 671.989 642.411 664.052 642.823 654.689C642.988 650.968 643.894 643.226 644.276 639.527C646.04 622.276 647.59 609.279 649.634 592.436C652.788 566.47 655.559 543.191 659.43 514.613C660.951 503.374 661.417 499.272 666.179 486.476C668.664 479.801 675.122 474.399 684.172 474.181C688.517 474.073 693.347 475.438 696.404 477.163C700.236 479.333 702.601 482.309 703.928 484.904C707.484 491.857 709.499 498.581 711.258 506.35C717.042 531.902 720.439 557.706 724.813 583.607C727.022 596.712 728.926 609.954 730.976 623.092C732.264 631.383 733.892 641.709 735.152 650.554C736.474 659.83 730.036 668.442 720.787 669.769C711.534 671.097 702.949 664.639 701.627 655.358C700.387 646.654 698.788 636.497 697.514 628.342C695.489 615.34 693.609 602.239 691.419 589.275C689.971 580.68 688.634 572.09 687.277 563.521Z" fill="white"></path> </mask> <g mask="url(#mask1_14:1635)"> <path d="M721.972 452.761C713.358 452.544 704.169 462.238 697.535 466.748C670.354 485.245 644.844 507.028 621.606 530.334C613.882 538.081 606.142 545.937 598.748 553.994C598.412 554.364 590.145 563.481 591.377 564.716C593.384 566.729 599.898 563.639 601.33 562.867C608.707 558.906 615.52 553.254 622.344 548.45C649.351 529.431 675.811 510.608 704.907 494.847C713.83 490.016 723.024 484.87 732.923 482.275C733.384 482.155 738.445 480.795 739.557 481.54C741.401 482.77 737.436 485.512 735.869 487.084C727.439 495.538 717.491 502.534 708.226 510.004C679.066 533.517 649.102 555.843 621.606 581.353C614.104 588.311 607.205 595.731 600.593 603.533C600.034 604.196 596.541 607.499 596.541 609.082C596.541 609.773 600.435 609.071 600.63 609C602.665 608.233 604.601 607.205 606.494 606.122C617.006 600.094 626.889 592.483 636.718 585.422C660.27 568.481 685.293 553.074 711.541 540.687C718.809 537.259 726.132 534.24 733.656 531.444C734.03 531.308 741.51 528.229 742.502 529.23C744.363 531.09 739.525 533.604 737.713 535.513C730.244 543.38 720.995 549.734 712.647 556.583C684.625 579.579 656.018 602.167 630.084 627.562C622.528 634.961 614.853 642.958 608.702 651.592C608.441 651.962 605.019 656.292 605.019 657.505C605.019 659.034 608.111 657.141 609.44 656.401C612.586 654.649 616.789 651.461 619.393 649.372C627.247 643.072 635.048 636.729 642.983 630.522C664.843 613.418 688.412 598.903 713.385 586.896C721.12 583.181 737.81 572.692 747.298 575.069C749.446 575.608 745.139 579.002 743.609 580.613C737.935 586.592 732.321 592.065 725.915 597.249C701.153 617.291 676.109 637.806 653.306 660.095C647.838 665.437 642.799 670.948 637.825 676.731C635.926 678.934 630.068 682.454 632.661 683.755C636.566 685.713 641.73 682.122 644.828 680.431C652.188 676.399 658.719 670.975 665.467 666.008C688.379 649.16 711.096 631.555 737.344 620.169C741.841 618.221 753.698 611.709 759.09 613.515C761.075 614.179 757.398 617.383 756.145 619.059C751.995 624.608 747.558 629.51 742.502 634.216C729.804 646.054 717.307 657.93 705.276 670.448C701.994 673.859 694.324 679.375 692.746 684.124C692.23 685.664 695.919 684.886 697.535 684.864C701.81 684.805 705.303 682.993 709.225 681.464C725.036 675.295 739.573 664.017 753.194 654.181" stroke="#FCF3E4" stroke-width="2.4" stroke-linecap="round" stroke-linejoin="round"></path> </g> <path fill-rule="evenodd" clip-rule="evenodd" d="M630.244 511.023C629.978 510.071 631.258 503.945 631.372 502.933C632.24 495.099 634.898 487.891 636.438 480.166C637.984 472.413 641.39 465.107 644.314 457.779C651.816 438.967 658.932 419.262 675.449 407.74C676.588 406.945 679.55 407.043 679.81 407.043C681.855 407.043 691.375 406.798 695.335 406.798C695.839 406.798 698.535 406.673 699.088 407.152C703.037 410.59 708.228 415.497 712.383 419.844C723.682 431.644 734.606 447.568 742.227 462.86C744.083 466.581 747.05 472.778 748.764 476.825C751.601 483.533 753.168 488.13 755.918 495.028C757.421 498.788 759.715 502.318 760.985 506.127C761.375 507.302 756.613 509.489 755.734 510.082C751.091 513.183 745.477 514.091 740.166 515.157C738.935 515.408 735.973 516.158 734.726 515.533C732.919 514.63 731.948 511.24 730.945 508.825C728.016 501.807 725.412 494.463 722.022 487.662C721.219 486.052 719.923 482.434 718.968 481.107C717.84 479.54 711.955 479.486 708.819 479.333C699.267 478.86 694.705 478.555 686.705 478.224C683.591 478.093 679.989 478.251 676.377 478.098C673.285 477.973 669.336 478 666.212 478C665.93 478 663.532 477.821 663.033 479.409C662.116 482.325 661.504 484.73 661.194 487.505C660.294 495.616 659.204 504.533 658.303 512.606C657.989 515.424 657.842 517.818 657.631 519.673C657.587 520.075 657.544 522.143 656.866 522.143C655.396 522.143 652.673 521.066 652.385 520.973C647.324 519.281 644.466 517.595 640.002 516.099C637.517 515.272 634.729 514.042 632.419 512.791C631.855 512.486 630.444 511.725 630.244 511.023Z" fill="#FF6E00"></path> <path d="M679.333 410.302C678.595 412.522 678.102 414.774 677.592 417.07C677.516 417.418 676.865 419.763 677.375 420.018C678.037 420.356 679.197 419.485 679.772 419.257C682.533 418.147 684.953 415.372 686.737 413.577C687.003 413.31 688.505 414.366 688.701 414.562C690.312 416.177 692.812 417.989 694.906 419.039C695.145 419.159 697.472 420.443 697.629 420.133C698.003 419.376 697.737 417.842 697.737 416.961C697.737 413.914 697.873 413.077 696.978 409.094" stroke="#320078" stroke-width="2.4" stroke-linecap="round" stroke-linejoin="round"></path> <path d="M688.213 409.067C688.082 419.871 688.251 425.36 688.484 431.813C688.912 443.787 689.037 465.58 689.514 477.549" stroke="#320078" stroke-width="2.4" stroke-linecap="round" stroke-linejoin="round"></path> <path d="M669.981 429.354C669.471 430.083 669.754 431.584 669.754 432.471C669.754 434.718 669.32 436.899 669.32 439.13C669.32 439.918 669.537 441.121 670.518 441.317C672.829 441.779 675.308 441.752 677.7 441.752C678.123 441.752 679.799 442.323 679.989 441.752C681.177 438.178 680.423 433.542 680.423 429.74" stroke="#320078" stroke-width="2.4" stroke-linecap="round" stroke-linejoin="round"></path> <path d="M665.002 441.442C664.785 443.672 664.888 449.776 664.807 453.106C664.601 461.701 664.2 469.16 663.766 477.679" stroke="#320078" stroke-width="2.4" stroke-linecap="round" stroke-linejoin="round"></path> <path d="M707.479 439.064C707.702 440.865 711.851 458.943 713.023 462.561C715.92 471.532 721.349 483.794 722.939 488.565" stroke="#320078" stroke-width="2.4" stroke-linecap="round" stroke-linejoin="round"></path> <path d="M675.65 389.874C675.683 391.565 675.954 393.992 676.556 394.993C678.406 398.094 683.385 397.338 686.114 396.652" stroke="#320078" stroke-width="2.4" stroke-linecap="round" stroke-linejoin="round"></path> <path d="M693.702 386.414C694.125 385.886 695.15 385.614 695.329 385.581C696.588 385.375 698.085 385.679 699.061 386.8C700.385 388.318 700.265 391.723 698.839 392.784C698.172 393.279 697.423 393.404 696.631 393.252" stroke="#320078" stroke-width="2.4" stroke-linecap="round" stroke-linejoin="round"></path> <path d="M693.61 386.403C693.1 385.701 691.901 384.346 691.782 384.199C690.637 382.818 690.323 382.426 689.238 380.908C689.059 380.658 688.717 379.994 688.364 380.174C684.676 382.023 679.631 384.558 675.379 384.134C671.739 383.77 669.021 377.829 671.229 374.733C671.858 373.847 672.395 372.835 673.372 372.247C674.939 371.301 676.773 371.11 678.389 370.3C682.772 368.107 687.844 366.682 692.519 369.364C693.284 369.804 694.109 370.947 694.255 371.845C694.309 372.171 694.271 372.867 694.456 373.052C694.597 373.194 695.166 372.922 695.329 372.922C696.11 372.922 696.984 372.677 697.738 373.052C700.016 374.195 702.663 377.682 701.421 380.174" stroke="#320078" stroke-width="2.4" stroke-linecap="round" stroke-linejoin="round"></path> <path d="M633.612 514.14C632.218 516.42 632.657 520.168 632.354 522.747C631.589 529.291 631.518 535.847 632.798 542.277C633.411 545.34 633.835 547.94 635.364 550.71C638.396 556.182 644.612 558.603 650.411 557.635C651.789 557.401 653.855 556.623 654.658 555.415" stroke="#320078" stroke-width="2.4" stroke-linecap="round" stroke-linejoin="round"></path> <path d="M644.385 526.713C642.99 528.318 643.24 530.668 643.24 532.691C643.24 535.716 643.527 539.214 644.39 542.098C645.09 544.431 645.388 546.994 647.487 548.577C651.496 551.596 654.88 544.301 655.369 541.39C655.759 539.029 655.808 536.516 655.808 534.111C655.808 530.167 656.161 526.299 656.161 522.393" stroke="#320078" stroke-width="2.4" stroke-linecap="round" stroke-linejoin="round"></path> <path d="M750.402 523.084C749.935 523.519 750.559 524.781 750.727 525.232C751.487 527.267 752.886 529.34 754.264 531.005C755.756 532.794 758.826 533.991 760.724 535.351C761.484 535.895 761.912 536.804 762.498 537.484C763.534 538.697 764.858 539.834 765.682 541.21C767.179 543.708 768.188 546.471 770.287 548.577C771.54 549.833 774.312 551.83 776.216 551.063C777.192 550.671 777.187 549.463 777.187 548.577C777.187 546.134 776.948 543.844 776.303 541.477C774.925 536.412 771.92 532.12 770.108 527.278C768.595 523.23 766.859 519.156 764.711 515.38C763.675 513.569 762.471 511.904 761.701 509.967C761.554 509.603 760.92 508.368 760.551 508.368" stroke="#320078" stroke-width="2.4" stroke-linecap="round" stroke-linejoin="round"></path> <path d="M735.903 517.138C735.257 518.65 736.673 521.816 737.009 523.28C737.904 527.164 738.533 531.527 739.927 535.265C740.595 537.049 741.701 540.057 741.701 541.831" stroke="#320078" stroke-width="2.4" stroke-linecap="round" stroke-linejoin="round"></path> <path d="M757.502 535.781C754.676 536.575 752.018 538.409 749.398 539.791C743.166 543.082 736.581 546.297 731.254 550.976C729.676 552.363 727.902 553.538 726.302 554.882C725.906 555.208 724.593 555.986 724.886 556.568C727.734 562.286 732.442 567.634 736.391 572.72C738.409 575.326 740.172 578.128 742.227 580.712C742.846 581.485 743.112 582.883 743.909 583.285C744.348 583.503 745.156 582.992 745.504 582.839C747.044 582.176 748.633 581.376 750.109 580.533C755.663 577.345 761.63 574.793 767.277 571.747C773.27 568.51 779.752 565.768 785.421 561.981C787.151 560.823 789.945 559.93 791.35 558.521C791.518 558.347 790.536 557.199 790.465 557.009C789.614 554.876 788.024 553.097 787.01 551.063C784.857 546.743 782.101 542.484 779.221 538.637C777.886 536.847 775.429 535.286 774.442 533.311C773.835 532.093 772.836 530.722 771.876 529.759" stroke="#320078" stroke-width="2.4" stroke-linecap="round" stroke-linejoin="round"></path> <path d="M749.252 582.209C749.745 582.279 750.065 583.068 750.374 583.373C751.324 584.33 751.996 587.072 753.114 587.633C753.667 587.91 755.576 586.468 756.037 586.213C758.967 584.581 761.934 582.845 764.977 581.42C771.046 578.58 776.97 575.359 782.942 572.367C786.75 570.458 790.709 568.282 794.002 565.534C795.835 564 798.309 562.988 799.931 561.362C800.354 560.943 798.71 559.468 798.515 559.142C797.143 556.846 795.613 554.578 794.268 552.216C791.653 547.625 788.556 543.213 785.947 538.638C784.797 536.608 783.593 534.231 781.965 532.599C781.325 531.957 781.141 530.798 780.642 530.292C779.834 529.482 777.029 531.979 776.302 531.979" stroke="#320078" stroke-width="2.4" stroke-linecap="round" stroke-linejoin="round"></path> <path d="M648.615 671.804C648.181 672.163 647.981 673.539 647.655 674.127C647.118 675.101 646.413 675.998 645.74 676.869C642.871 680.568 638.938 683.511 634.897 685.823C630.319 688.451 625.562 690.611 620.501 692.128C616.205 693.423 610.26 694.321 609.203 699.625C608.221 704.549 615.576 707.236 619.048 708.395C621.217 709.124 623.311 710.669 625.606 710.957C632.288 711.795 640.609 709.053 646.381 705.745C649.402 704.015 651.658 701.089 654.761 699.533C655.184 699.321 655.217 701.698 655.217 701.91C655.217 704.075 655.179 706.208 654.761 708.308C654.718 708.531 654.192 710.021 654.398 710.223C655.043 710.876 657.056 710.587 657.951 710.5C660.994 710.196 664.14 710.38 667.15 709.951C667.692 709.875 669.689 710.239 670.068 709.858C670.34 709.586 670.161 707.862 670.161 707.481C670.161 705.103 670.34 702.748 670.34 700.354C670.34 691.389 669.613 682.592 669.613 673.67" stroke="#320078" stroke-width="2.4" stroke-linecap="round" stroke-linejoin="round"></path> <path d="M731.897 673.229C732.325 679.355 736.583 683.762 741.655 686.585C745.43 688.691 749.119 691.144 753.588 691.704C756.273 692.042 760.374 692.042 762.793 693.255C766.856 695.295 768.983 700.235 765.798 704.222C764.334 706.061 761.459 707.22 759.42 708.243C754.858 710.533 749.493 711.463 744.389 710.892C741.151 710.533 737.88 709.238 734.728 708.607C731.539 707.971 729.293 704.799 727.167 702.667C726.494 701.992 725.925 701.323 725.165 700.752C724.937 700.577 724.628 700.305 724.433 700.11C724.297 699.974 724.129 699.468 724.07 699.653C723.18 702.329 723.598 705.806 723.251 708.607C723.185 709.14 723.457 710.963 723.066 711.349C722.746 711.67 720.273 711.442 719.79 711.442C717.078 711.442 714.235 710.876 711.588 710.435C710.899 710.321 709.299 710.424 708.855 709.978C708.621 709.744 708.855 708.123 708.855 707.786C708.855 705.898 708.817 703.82 708.583 701.938C707.683 694.718 708.128 687.037 708.128 679.73C708.128 677.826 708.312 675.563 707.943 673.703C707.862 673.284 707.477 671.88 707.851 671.51" stroke="#320078" stroke-width="2.4" stroke-linecap="round" stroke-linejoin="round"></path> <path fill-rule="evenodd" clip-rule="evenodd" d="M754.481 548C751.807 546.77 748.916 547.527 746.513 549.278C744.462 550.78 742.336 552.978 741.511 555.464C740.21 559.381 741.213 564.56 744.994 566.665C745.78 567.106 746.572 567.753 747.456 567.976C750.369 568.705 753.266 568.113 755.799 566.589C756.813 565.98 757.871 565.142 758.701 564.19C759.883 562.835 760.393 561.639 760.648 559.827C761.288 555.355 759.851 550.464 754.481 548Z" stroke="#320078" stroke-width="2.4" stroke-linecap="round" stroke-linejoin="round"></path> <path d="M750.537 547.919C750.467 547.891 750.51 548.136 750.505 548.196C750.462 548.555 750.429 548.914 750.402 549.284C750.348 550.095 750.342 550.911 750.299 551.721C750.201 553.457 750.223 555.198 750.223 556.939C750.223 557.336 750.169 557.771 750.245 558.157C750.261 558.222 750.239 558.413 750.326 558.445C750.494 558.5 750.727 558.304 750.868 558.233C751.302 558.016 751.79 557.896 752.241 557.717C753.792 557.096 755.327 556.444 756.868 555.796C757.264 555.633 757.649 555.442 758.034 555.279C758.191 555.209 758.414 555.018 758.576 555.018" stroke="#320078" stroke-width="2.4" stroke-linecap="round" stroke-linejoin="round"></path> <path d="M750.385 558.887C750.837 559.016 751.229 559.272 751.679 559.444C753.388 560.085 755.046 560.877 756.73 561.602C757.306 561.849 758.042 562.393 758.631 562.489" stroke="#320078" stroke-width="2.4" stroke-linecap="round" stroke-linejoin="round"></path> <path fill-rule="evenodd" clip-rule="evenodd" d="M397.865 580.391C397.077 582.627 397.066 590.976 398.338 591.39C402.677 592.804 422.789 592.428 423.235 592.44C431.549 592.605 470.178 592.97 470.557 592.975C475.854 593.102 480.363 593.113 485.236 593.113C488.809 593.113 490.186 594.091 490.301 590.595C490.395 587.602 491.028 584.692 490.334 581.329C490.098 580.192 487.631 580.363 486.475 580.33C483.243 580.241 480.308 580.159 477.076 580.07C463.554 579.706 450.483 579.855 436.961 579.612C422.332 579.347 422.018 579.369 407.257 579.336C406.652 579.336 397.821 578.855 397.865 580.391Z" stroke="#320078" stroke-width="2.4" stroke-linecap="round" stroke-linejoin="round"></path> <path d="M422.519 593.323C421.391 597.774 419.733 603.859 419.034 606.56C415.72 619.31 412.526 632.093 409.685 644.954C405.996 661.658 401.977 677.34 398.437 694.078C397.347 699.224 394.016 712.223 401.724 712.979C410.159 713.813 415.141 689.185 415.62 687.308C421.236 665.209 426.269 643.839 431.499 621.646C433.041 615.113 434.434 607.703 435.926 601.153C436.432 598.923 436.697 596.929 437.6 593.461" stroke="#320078" stroke-width="2.4" stroke-linecap="round" stroke-linejoin="round"></path> <path d="M465.222 593.323C466.351 597.774 468.008 603.859 468.707 606.56C472.022 619.31 475.215 632.093 478.056 644.954C481.745 661.658 485.764 677.34 489.305 694.078C490.395 699.224 493.726 712.223 486.018 712.979C477.583 713.813 472.6 689.185 472.121 687.308C466.505 665.209 461.473 643.839 456.242 621.646C454.701 615.113 453.308 607.703 451.816 601.153C451.309 598.923 451.045 596.929 450.142 593.461" stroke="#320078" stroke-width="2.4" stroke-linecap="round" stroke-linejoin="round"></path> <path d="M429.911 637.98C439.141 637.055 448.87 637.873 458.167 638.089" stroke="#320078" stroke-width="2.4" stroke-linecap="round" stroke-linejoin="round"></path> <path d="M426.919 651.359C426.705 651.309 427.744 651.173 427.97 651.14C428.821 651.022 429.68 651.031 430.546 650.984C433.104 650.851 435.697 650.916 438.265 650.844C445.969 650.614 453.89 650.776 461.514 650.954" stroke="#320078" stroke-width="2.4" stroke-linecap="round" stroke-linejoin="round"></path> <path fill-rule="evenodd" clip-rule="evenodd" d="M624.714 567.795C620.177 576.392 613.097 584.2 606.171 591.147C605.235 592.091 601.094 597.282 599.575 596.52C598.038 595.753 595.418 592.964 594.085 591.622C589.224 586.746 585.067 582.389 580.205 577.508C577.915 575.216 576.004 573.51 573.609 571.307C573.026 570.771 570.675 568.441 570.713 568.579C571.49 571.511 574.54 576.624 575.828 579.209C577.931 583.422 581.009 588.182 582.903 592.401C586.719 600.894 590.776 606.769 594.421 614.091C594.994 615.229 588.712 620.038 587.831 620.701C581.664 625.339 575.718 629.934 569.078 633.932C568.236 634.44 563.011 638.018 562.278 637.648C561.106 637.063 560.362 634.743 559.597 633.722C556.387 629.426 554.466 624.594 551.768 620.082C543.372 606.051 536.242 591.721 527.867 577.718C524.575 572.212 521.816 561.56 516.118 558.7C514.549 557.916 511.603 558.28 509.819 558.308C505.784 558.363 501.687 558.164 500.327 558.761C495.124 561.047 488.644 565.227 483.149 567.59C470.117 573.19 454.69 578.077 440.287 576.271C434.429 575.537 430.459 572.582 425.449 570.07C421.49 568.082 416.821 563.979 414.531 560.147C412.769 557.209 411.855 553.553 410.82 550.433C408.634 543.857 418.869 544.74 423.39 544.232C437.71 542.636 452.444 537.827 466.043 533.282C480.044 528.599 495.201 524.138 508.289 517.572C515.523 513.944 528.539 508.179 536.561 506.539C541.351 505.556 552.418 503.905 562.278 507.859C569.364 510.703 574.744 517.467 580.002 522.741C587.831 530.598 595.484 538.892 603.285 546.717C610.839 554.293 617.744 561.472 624.714 567.795Z" fill="#006964"></path> <mask id="mask2_14:1635" style="mask-type:alpha" maskUnits="userSpaceOnUse" x="410" y="505" width="215" height="133"> <path d="M624.714 567.795C620.177 576.392 613.097 584.201 606.171 591.147C605.235 592.091 601.094 597.282 599.575 596.52C598.038 595.753 595.418 592.964 594.085 591.622C589.224 586.746 585.067 582.389 580.205 577.508C577.915 575.216 576.004 573.51 573.609 571.307C573.026 570.771 570.675 568.441 570.713 568.579C571.49 571.511 574.54 576.624 575.828 579.209C577.931 583.422 581.009 588.182 582.903 592.401C586.719 600.894 590.776 606.769 594.421 614.091C594.994 615.229 588.712 620.038 587.831 620.701C581.664 625.339 575.718 629.934 569.078 633.932C568.236 634.44 563.011 638.018 562.278 637.648C561.106 637.063 560.362 634.743 559.597 633.722C556.387 629.426 554.466 624.594 551.768 620.082C543.372 606.051 536.242 591.721 527.867 577.718C524.575 572.212 521.816 561.56 516.118 558.7C514.549 557.916 511.603 558.28 509.819 558.308C505.784 558.363 501.687 558.164 500.327 558.761C495.124 561.047 488.644 565.227 483.149 567.59C470.117 573.19 454.69 578.077 440.287 576.271C434.429 575.537 430.459 572.582 425.449 570.07C421.49 568.082 416.821 563.979 414.531 560.147C412.769 557.209 411.855 553.553 410.82 550.434C408.634 543.857 418.869 544.74 423.389 544.232C437.71 542.636 452.444 537.827 466.043 533.282C480.044 528.6 495.201 524.138 508.289 517.572C515.523 513.944 528.539 508.179 536.561 506.539C541.351 505.556 552.418 503.905 562.278 507.859C569.364 510.703 574.743 517.467 580.002 522.741C587.831 530.598 595.484 538.893 603.285 546.717C610.839 554.293 617.744 561.472 624.714 567.795Z" fill="white"></path> </mask> <g mask="url(#mask2_14:1635)"> <path d="M591.679 526.07C591.437 525.303 588.249 530.886 588.045 531.327C586.306 535.104 585.16 539.18 586.669 543.222C589.091 549.699 595.082 549.567 600.246 552.532C603.511 554.404 605.08 558.131 607.982 560.456C611.88 563.587 621.179 560.334 623.618 556.668" stroke="#FCF3E4" stroke-width="2.4" stroke-linecap="round" stroke-linejoin="round"></path> <path d="M548.894 546.336C548.822 546.331 549.863 545.911 550.408 545.635C551.591 545.039 553.062 544.818 554.361 544.602C559.195 543.791 563.512 543.338 567.938 545.806C571.836 547.982 571.935 552.173 574.121 555.459C576.962 559.733 584.758 558.463 585.981 564.597C586.476 567.088 586.212 572.124 584.433 573.902C583.63 574.714 583.894 577.005 582.545 577.005" stroke="#FCF3E4" stroke-width="2.4" stroke-linecap="round" stroke-linejoin="round"></path> <path d="M512.093 513.762C511.234 513.723 511.999 515.496 512.082 515.987C512.467 518.323 514.009 520.99 515.865 522.536C520.418 526.346 528.264 526.495 533.736 525.12C542.204 523 548.013 515.418 555.908 512.022C564.827 508.19 574.375 510.99 583.404 510.99" stroke="#FCF3E4" stroke-width="2.4" stroke-linecap="round" stroke-linejoin="round"></path> <path d="M419.216 567.126C419.348 567.612 418.764 567.513 418.764 567.872C418.764 568.004 420.306 566.668 420.306 566.662C421.391 565.762 422.833 565.05 424.088 564.421C427.91 562.504 431.824 561.615 436.119 562.007C442.081 562.554 446.525 566.773 452.79 566.149C460.619 565.359 467.612 561.356 475.821 562.184C478.26 562.427 480.561 563.134 482.863 563.907C484.201 564.354 485.263 565.801 486.475 565.801" stroke="#FCF3E4" stroke-width="2.4" stroke-linecap="round" stroke-linejoin="round"></path> <path d="M444.526 538.881C444.047 538.981 444.966 541.145 445.054 541.499C445.633 543.813 447.141 546.656 449.008 548.219C453.588 552.046 461.787 551.808 466.885 549.252C475.303 545.033 476.338 537.981 481.321 530.985C485.731 524.789 492.278 520.532 499.881 519.262" stroke="#FCF3E4" stroke-width="2.4" stroke-linecap="round" stroke-linejoin="round"></path> <path d="M517.213 570.081C517.07 570.092 522.328 568.562 524.283 568.562C529.783 568.562 536.131 569.407 538.89 574.934C539.765 576.685 539.771 578.932 540.784 580.628C543.492 585.156 546.091 587.961 544.907 593.897C544.258 597.166 541.494 599.955 539.578 602.517C536.638 606.448 533.907 610.612 532.36 615.273" stroke="#FCF3E4" stroke-width="2.4" stroke-linecap="round" stroke-linejoin="round"></path> <path d="M543.614 544.663C541.764 550.958 543.476 556.883 548.69 560.804C551.812 563.151 556.36 563.3 559.685 565.801C563.341 568.551 564.404 575.608 566.391 579.59C569.199 585.222 578.829 586.829 584.263 586.829" stroke="#FCF3E4" stroke-width="2.4" stroke-linecap="round" stroke-linejoin="round"></path> <path d="M587.401 626.168C587.214 624.627 588.315 622.717 587.528 621.132C585.375 616.808 579.137 612.633 574.121 613.892C569.695 615.002 567.03 619.784 562.438 620.441C559.261 620.894 555.743 620.613 552.643 621.651C545.348 624.086 539.297 628.874 536.831 636.301" stroke="#FCF3E4" stroke-width="2.4" stroke-linecap="round" stroke-linejoin="round"></path> <path d="M501.665 556.105C501.395 556.955 501.836 553.194 502.111 552.355C503.097 549.401 504.847 546.717 507.27 544.773C512.159 540.847 520.032 544.845 524.971 546.496" stroke="#FCF3E4" stroke-width="2.4" stroke-linecap="round" stroke-linejoin="round"></path> <path d="M546.091 504.021C546.168 506.627 545.656 509.587 546.625 512.022C547.358 513.85 548.795 514.662 550.237 515.816C556.266 520.653 561.617 516.942 568.279 515.987C575.101 515.01 581.752 515.33 587.869 518.4" stroke="#FCF3E4" stroke-width="2.4" stroke-linecap="round" stroke-linejoin="round"></path> <path d="M529.645 589.568C528.77 589.656 530.813 589.22 531.16 589.071C532.591 588.458 534.584 588.06 536.142 587.867C540.272 587.348 550.033 587.055 551.437 592.693C553.205 599.784 547.506 606.427 545.078 612.512C542.914 617.94 543.344 628.802 545.596 633.888" stroke="#FCF3E4" stroke-width="2.4" stroke-linecap="round" stroke-linejoin="round"></path> <path d="M453.671 529.941C453.523 531.062 455.422 532.719 456.055 533.569C458.362 536.656 459.271 539.914 460.179 543.564C461.253 547.866 456.419 552.83 454.855 556.491C453.335 560.036 453.803 564.239 452.449 567.872C450.627 572.737 446.299 575.757 442.825 579.247C438.299 583.781 432.397 588.839 425.983 590.451" stroke="#FCF3E4" stroke-width="2.4" stroke-linecap="round" stroke-linejoin="round"></path> <path d="M614.28 542.355C608.824 542.421 604.887 551.444 604.887 556.668C604.887 561.859 608.543 566.033 609.182 571.147C609.925 577.121 606.572 584.968 610.212 590.452C611.929 593.03 614.93 595.178 617.088 597.343" stroke="#FCF3E4" stroke-width="2.4" stroke-linecap="round" stroke-linejoin="round"></path> </g> <path fill-rule="evenodd" clip-rule="evenodd" d="M448.424 444.406C445.214 445.643 443.667 446.587 442.753 447.25C436.692 451.695 436.009 452.932 432.188 457.399C423.219 467.896 414.905 479.089 408.05 490.768C403.899 497.831 400.684 505.297 397.27 512.713C394.589 518.544 392.854 528.732 395.172 534.729C397.479 540.72 400.783 541.858 404.378 542.951C409.251 544.431 416.524 544.569 424.215 543.664C444.278 541.295 464.022 535.497 482.841 528.417C486.838 526.915 493.429 524.867 496.33 521.951C496.908 521.377 495.807 517.429 495.703 516.915C494.827 512.514 493.076 507.086 491.243 502.481C484.763 486.229 482.191 472.651 470.216 454.064C466.764 448.702 462.541 445.968 458.263 444.544C456.947 444.102 450.192 443.721 448.424 444.406Z" fill="#E64632"></path> <path fill-rule="evenodd" clip-rule="evenodd" d="M484.884 493.85C484.795 493.872 485.583 491.542 485.687 491.117C486.332 488.538 487.565 486.097 488.545 483.64C490.527 478.67 492.46 472.552 495.631 468.311C496.561 467.063 497.106 464.451 498.61 463.7C499.799 463.103 502.772 464.07 503.834 464.501C507.243 465.864 510.034 467.444 513.282 469.608C514.896 470.685 516.443 472.485 517.621 473.667C517.946 473.998 516.922 475.572 516.751 475.909C515.661 478.096 514.736 480.332 513.646 482.519C512.55 484.717 511.521 486.263 510.761 486.959C510.095 487.571 505.167 488.77 501.874 489.648C500.938 489.896 497.905 491.083 494.508 492.122C492.25 492.812 486.155 495.026 485.561 494.767C485.324 494.667 484.537 494.612 484.884 493.85Z" fill="#E64632"></path> <path d="M608.895 596.008C611.795 598.867 615.516 602.874 618.241 605.685C624.393 612.032 630.698 618.231 637.139 624.282C639.143 626.167 640.723 627.742 642.866 629.466C643.797 630.212 645.236 632.068 646.366 631.696C648.277 631.056 649.599 629.014 650.979 627.547C652.732 625.699 654.554 623.988 655.777 621.753C656.122 621.117 649.113 615.485 649.554 615.106C653.606 611.589 660.449 617.054 664.79 612.926C669.198 608.743 673.191 604.132 677.065 599.444C680.934 594.758 684.666 589.937 687.995 584.843C689.408 582.679 691.749 576.632 688.314 574.569C685.082 572.632 677.998 575.744 675.341 576.507C666.455 579.059 657.577 581.649 648.681 584.158C646.578 584.749 644.462 585.275 642.346 585.806C641.613 585.984 640.762 586.702 640.13 586.292C637.281 584.429 635.019 581.781 632.567 579.419C630.587 577.512 628.284 575.444 625.78 573.155" stroke="#320078" stroke-width="2.4" stroke-linecap="round" stroke-linejoin="round"></path> <path d="M615.139 592.149C614.316 592.866 615.182 594.858 616.365 594.266C617.555 593.677 617.356 591.821 615.898 592.141" stroke="#320078" stroke-width="2.4" stroke-linecap="round" stroke-linejoin="round"></path> <path d="M622.769 581.956C621.943 581.866 621.805 583.524 622.834 583.638C623.925 583.755 624.272 581.87 623.304 582.082" stroke="#320078" stroke-width="2.4" stroke-linecap="round" stroke-linejoin="round"></path> <path d="M627.053 594.179C626.278 593.915 625.705 595.471 626.472 595.668C627.909 596.03 628.177 594.024 626.65 594.358" stroke="#320078" stroke-width="2.4" stroke-linecap="round" stroke-linejoin="round"></path> <path d="M635.221 587.898C634.215 588.027 634.107 589.23 635.188 589.194C635.965 589.163 635.616 588.036 635.061 588.158" stroke="#320078" stroke-width="2.4" stroke-linecap="round" stroke-linejoin="round"></path> <path d="M625.544 602.882C624.877 602.476 623.69 603.847 624.501 604.602C624.963 605.031 626.041 604.279 625.729 603.633C625.619 603.41 625.676 603.39 625.67 603.363" stroke="#320078" stroke-width="2.4" stroke-linecap="round" stroke-linejoin="round"></path> <path d="M624.905 611.569C624.767 612.046 626.718 611.048 627.203 610.715C629.111 609.421 630.692 607.893 632.453 606.467C637.473 602.399 642.674 594.362 641.222 587.749" stroke="#320078" stroke-width="2.4" stroke-linecap="round" stroke-linejoin="round"></path> <path d="M655.689 582.97C655.962 583.803 656.345 586.161 656.438 586.587C657.001 589.149 656.993 592.04 657.504 594.365" stroke="#320078" stroke-width="2.4" stroke-linecap="round" stroke-linejoin="round"></path> <path d="M664.308 579.778C664.788 581.295 664.804 581.857 664.976 582.639C665.591 585.438 665.969 588.34 666.571 591.08" stroke="#320078" stroke-width="2.4" stroke-linecap="round" stroke-linejoin="round"></path> <path d="M572.156 638.747C574.374 642.16 577.149 646.87 579.208 650.2C583.855 657.715 588.684 665.12 593.678 672.409C595.23 674.679 596.436 676.556 598.159 678.699C598.908 679.626 599.916 681.747 601.099 681.625C603.104 681.41 604.832 679.698 606.495 678.561C608.604 677.131 610.751 675.849 612.425 673.928C612.898 673.381 607.26 666.379 607.772 666.103C612.485 663.535 617.997 670.338 623.123 667.235C628.326 664.093 633.215 660.443 638.005 656.694C642.789 652.944 647.469 649.035 651.813 644.772C653.658 642.96 657.242 637.554 654.329 634.804C651.587 632.22 644 633.744 641.242 633.921C632.014 634.512 622.787 635.141 613.559 635.688C611.379 635.815 609.198 635.876 607.018 635.942C606.264 635.958 605.278 636.478 604.75 635.942C602.366 633.512 600.725 630.442 598.837 627.609C597.311 625.323 595.506 622.811 593.551 620.039" stroke="#320078" stroke-width="2.4" stroke-linecap="round" stroke-linejoin="round"></path> <path d="M579.078 636.282C578.12 636.807 578.538 638.938 579.821 638.613C581.109 638.292 581.313 636.437 579.821 636.437" stroke="#320078" stroke-width="2.4" stroke-linecap="round" stroke-linejoin="round"></path> <path d="M588.707 627.966C587.92 627.701 587.43 629.291 588.41 629.623C589.451 629.971 590.194 628.204 589.203 628.204" stroke="#320078" stroke-width="2.4" stroke-linecap="round" stroke-linejoin="round"></path> <path d="M589.946 640.819C589.364 640.438 588.62 641.695 589.209 642.016C590.312 642.611 590.888 640.899 589.587 640.899" stroke="#320078" stroke-width="2.4" stroke-linecap="round" stroke-linejoin="round"></path> <path d="M599.079 636.877C598.109 636.781 597.76 638.03 598.781 638.242C599.517 638.39 599.422 637.116 598.876 637.116" stroke="#320078" stroke-width="2.4" stroke-linecap="round" stroke-linejoin="round"></path> <path d="M586.094 648.942C585.63 648.875 584.252 649.752 584.802 650.343C585.21 650.774 586.267 650.356 586.112 649.685C586.057 649.453 585.507 649.214 585.507 649.187" stroke="#320078" stroke-width="2.4" stroke-linecap="round" stroke-linejoin="round"></path> <path d="M584.456 657.356C584.219 657.793 586.339 657.235 586.884 657.014C589.025 656.158 590.897 655.004 592.924 653.988C598.699 651.089 605.504 644.352 605.504 637.582" stroke="#320078" stroke-width="2.4" stroke-linecap="round" stroke-linejoin="round"></path> <path d="M620.651 636.03C620.739 636.903 620.607 639.288 620.607 639.724C620.607 642.347 619.979 645.169 619.979 647.549" stroke="#320078" stroke-width="2.4" stroke-linecap="round" stroke-linejoin="round"></path> <path d="M629.752 634.766C629.895 636.35 629.79 636.903 629.79 637.703C629.79 640.569 629.537 643.485 629.537 646.29" stroke="#320078" stroke-width="2.4" stroke-linecap="round" stroke-linejoin="round"></path> <path d="M501.819 459.045C501.577 458.1 501.054 455.367 501.054 454.622C501.054 451.474 501.087 447.791 502.496 444.964C504.242 441.463 507.611 438.475 509.406 434.869C511.785 430.104 510.463 422.362 517.748 420.418C521.502 419.419 523.501 424.51 523.358 427.68C523.154 432.208 522.218 434.963 522.218 439.508C522.218 441.518 523.165 443.848 522.774 448.128C522.681 449.122 522.081 450.983 521.574 452.799" stroke="#320078" stroke-width="2.4" stroke-linecap="round" stroke-linejoin="round"></path> <path d="M523.517 425.808C524.393 420.832 529.888 414.984 533.285 412.422C534.876 411.229 536.891 409.54 538.691 408.656C541.488 407.292 545.183 406.464 546.504 409.109C548.37 412.858 545.64 414.46 544.192 417.359C543.322 419.104 541.879 420.678 540.051 422.903C537.607 425.874 535.008 428.408 533.285 431.86" stroke="#320078" stroke-width="2.4" stroke-linecap="round" stroke-linejoin="round"></path> <path d="M544.5 416.95C545.442 416.139 547.011 414.703 547.859 414.234C550.232 412.914 556.927 410.368 558.821 414.686C560.979 419.612 556.046 423.118 552.214 425.681C548.25 428.331 544.021 432.843 540.949 435.924" stroke="#320078" stroke-width="2.4" stroke-linecap="round" stroke-linejoin="round"></path> <path d="M556.002 422.81C558.441 421.766 560.731 423.141 561.375 423.572C563.594 425.057 563.165 428.365 562.421 430.601C561.887 432.213 560.186 433.743 558.969 434.72C555.104 437.824 549.879 439.768 546.355 443.307" stroke="#320078" stroke-width="2.4" stroke-linecap="round" stroke-linejoin="round"></path> <path d="M554.471 437.823C555.649 437.398 556.729 437.15 557.94 437.293C559.867 437.514 561.711 438.403 562.427 440.292C564.387 445.466 560.572 447.122 557.252 449.265C553.282 451.833 549.841 453.743 545.524 454.991C542.992 455.726 538.879 457.388 536.743 458.669C533.555 460.591 530.301 462.275 527.278 464.544C525.263 466.063 522.081 467.869 519.691 469.608" stroke="#320078" stroke-width="2.4" stroke-linecap="round" stroke-linejoin="round"></path> <path d="M490.252 493.413C490.218 493.253 491.678 492.822 492.024 492.706C494.172 491.989 496.308 491.138 498.433 490.288C504.418 487.886 510.375 486.549 516.707 485.754C518.623 485.517 520.908 485.285 522.796 485.754C524.525 486.191 526.458 486.24 527.944 487.229C528.39 487.532 529.31 487.88 529.31 488.388" stroke="#320078" stroke-width="2.4" stroke-linecap="round" stroke-linejoin="round"></path> <path d="M513.651 492.519C519.597 491.486 525.263 488.875 531.303 490.393C532.762 490.758 535.817 491.459 535.817 493.342" stroke="#320078" stroke-width="2.4" stroke-linecap="round" stroke-linejoin="round"></path> <path d="M519.432 497.191C519.317 497.246 520.473 496.627 520.803 496.5C521.855 496.103 522.973 496.003 524.057 495.766C527.245 495.053 531.694 495.07 534.876 495.871C535.361 495.992 537.712 496.666 537.712 497.24" stroke="#320078" stroke-width="2.4" stroke-linecap="round" stroke-linejoin="round"></path> <path d="M547.27 478.211C546.73 479.459 543.344 488.394 542.122 491.657C541.026 494.584 540.112 497.638 538.972 500.504C538.631 501.354 538.367 503.221 537.816 503.767C537.475 504.115 535.372 504.088 534.876 504.088H526.997" stroke="#320078" stroke-width="2.4" stroke-linecap="round" stroke-linejoin="round"></path> <path d="M547.292 478.079C549.637 477.692 555.501 476.455 560.516 475.34C562.355 474.926 577.16 472.027 577.199 472.065C577.634 472.502 573.604 482.055 572.161 485.44C570.614 489.057 567.575 500.261 566.909 500.923C566.628 501.205 554.702 502.376 550.612 502.961C547.683 503.381 539.941 504.507 537.078 504.507" stroke="#320078" stroke-width="2.4" stroke-linecap="round" stroke-linejoin="round"></path> <path d="M446.5 418.99C445.081 418.892 443.987 418.806 443.303 418.738C441.749 418.584 440.314 418.72 438.795 419.076C438.407 419.168 437.422 419.365 437.168 419.82C436.661 420.718 437.5 421.917 437.982 422.488C439.391 424.161 441.801 424.813 443.542 425.846C443.723 425.956 443.21 427.001 443.158 427.155C442.863 428.041 442.744 429.817 443.257 430.629C443.998 431.797 445.143 432.111 446.277 432.449C448.495 433.107 451.096 432.615 453.371 432.615" stroke="#320078" stroke-width="2.4" stroke-linecap="round" stroke-linejoin="round"></path> <path d="M459.765 417.934C459.727 417.547 460.778 417.304 461.109 417.199C462.606 416.697 464.478 416.879 465.822 417.646C469.015 419.474 467.98 423.704 465.712 425.979C464.831 426.863 463.157 426.874 462.006 427.106" stroke="#320078" stroke-width="2.4" stroke-linecap="round" stroke-linejoin="round"></path> <path d="M459.127 417.829C458.961 417.547 457.915 417.569 457.629 417.42C456.5 416.857 455.24 416.537 453.808 416.294C451.22 415.863 449.123 414.736 446.849 413.367C445.5 412.555 443.644 411.893 442.923 410.44C440.82 406.233 444.58 402.444 449.095 403.35C450.697 403.67 453.098 405.051 454.821 404.477C457.585 403.549 459.468 402.025 462.678 402.56C464.864 402.925 466.482 404.443 467.396 406.277C467.694 406.873 467.798 408.486 468.178 408.867C468.332 409.021 469.076 408.806 469.301 408.867C470.402 409.143 471.851 409.292 472.781 409.993C476.987 413.157 476.217 418.613 473.794 422.263" stroke="#320078" stroke-width="2.4" stroke-linecap="round" stroke-linejoin="round"></path> <path d="M461.98 427.21C461.765 428.701 461.671 431.297 461.649 431.766C461.368 437.349 461.539 438.967 461.539 443.302" stroke="#320078" stroke-width="2.4" stroke-linecap="round" stroke-linejoin="round"></path> <path d="M472.76 571.743C483.755 567.033 492.933 562.3 499.204 559.363C506.808 555.795 527.752 544.288 530.928 543.2C537.359 540.996 541.054 541.388 547.148 545.85C557.72 553.598 570.493 564.597 578.774 573.527C585.078 580.324 592.489 586.835 599.035 593.4" stroke="#320078" stroke-width="2.4" stroke-linecap="round" stroke-linejoin="round"></path> <path d="M558.782 486.743C558.16 486.351 557.466 486.848 557.152 487.489C556.69 488.416 556.668 489.51 557.78 489.929C559.558 490.597 561.017 487.091 558.853 487.091" stroke="#320078" stroke-width="2.4" stroke-linecap="round" stroke-linejoin="round"></path> <path d="M417.498 511.691C417.091 511.691 418.192 511.934 418.263 511.945C418.891 512.05 419.513 512.139 420.135 512.199C421.765 512.365 423.439 512.299 425.074 512.199C430.371 511.89 435.629 510.913 440.914 510.41C451.26 509.422 461.803 505.755 471.312 501.785C474.065 500.636 477.06 499.256 479.658 497.77C480.853 497.086 482.263 495.965 483.573 495.633" stroke="#320078" stroke-width="2.4" stroke-linecap="round" stroke-linejoin="round"></path> <path d="M467.748 473.741C467.886 477.873 468.008 480.402 468.118 482.966C468.288 486.817 468.323 490.692 468.32 494.532C468.321 496.774 468.31 499.577 468.394 501.716" stroke="#320078" stroke-width="2.4" stroke-linecap="round" stroke-linejoin="round"></path> <path d="M479.064 500.929C480.473 502.663 481.558 504.739 482.555 506.738C484.735 511.111 486.37 518.373 486.568 523.558" stroke="#320078" stroke-width="2.4" stroke-linecap="round" stroke-linejoin="round"></path> <path d="M497.029 471.121C499.11 471.303 499.914 471.27 501.957 471.85C506.279 473.087 509.951 475.058 513.002 477.753" stroke="#320078" stroke-width="2.4" stroke-linecap="round" stroke-linejoin="round"></path> <path fill-rule="evenodd" clip-rule="evenodd" d="M271.302 461.38C273.902 459.682 276.497 457.933 279.194 456.413C288.655 451.097 299.123 445.054 310.391 446.467C317.367 447.341 323.919 449.396 330.354 453.565C333.094 455.342 336.052 456.83 339.079 458.925C339.685 459.348 341.524 460.555 342.282 461.073C350.127 466.432 360.853 464.425 366.224 456.584C371.59 448.749 369.578 438.036 361.734 432.671C361.019 432.186 359.289 431.053 358.722 430.658C355.378 428.343 352.13 426.664 349.106 424.701C337.994 417.503 326.729 413.837 314.685 412.325C296.012 409.988 277.963 417.622 262.292 426.438C258.708 428.454 255.24 430.782 251.784 433.021C251.996 432.886 252.551 432.562 252.551 432.562C252.551 432.562 240.223 445.372 241.574 452.895C243.252 462.24 252.208 468.465 261.564 466.786C265.472 466.089 268.836 464.119 271.302 461.38Z" fill="#FFB400"></path> <path fill-rule="evenodd" clip-rule="evenodd" d="M291.268 413.238C291.109 413.266 290.767 418.168 290.663 418.882C289.639 426.115 288.306 433.104 287.579 440.425C284.926 467.086 278.12 495.252 272.967 521.139C269.68 537.657 264.097 554.927 260.028 571.301C255.916 587.819 253.229 602.196 249.545 618.841C247.701 627.202 245.157 636.93 243.115 645.137C242.856 646.166 240.235 654.051 241.177 654.998C242.327 656.154 246.831 655.712 249.595 655.667C255.42 655.573 266.531 655.147 272.383 655.147C274.376 655.147 277.245 655.147 279.414 655.153C280.053 655.153 280.136 653.26 280.29 652.64C280.84 650.427 280.835 648.108 281.484 645.84C283.411 639.055 284.38 631.009 286.098 624.103C288.119 615.969 290.613 607.486 292.909 599.429C297.055 584.87 298.8 575.523 301.927 564.002C304.741 553.621 305.77 542.604 307.868 532.079C308.551 528.648 309.487 525.162 310.329 521.781C310.61 520.641 323.428 550.257 326.125 561.114C327.105 565.043 326.951 568.379 326.12 573.083C324.11 584.427 322.255 595.671 320.366 607.049C318.693 617.153 317.079 627.103 315.653 637.118C315.483 638.325 313.209 645.369 314.013 646.183C315.092 647.267 321.93 647.865 323.521 648.064C331.455 649.06 340.54 652.153 347.625 652.153C348.237 652.153 348.374 649.492 348.44 649.066C349.101 644.938 349.855 642.353 350.604 638.972C353.764 624.662 356.627 611.636 360.894 595.096C364.275 581.992 366.582 568.512 364.374 555.182C363.444 549.587 359.579 544.059 357.398 538.957C348.71 518.571 333.354 499.17 331.026 476.703C329.473 461.757 330.458 453.418 329.941 439.34C329.776 434.747 330.194 430.647 329.798 423.569C329.666 421.173 329.253 417.814 329.154 417.449C328.697 415.866 318.808 411.595 318.181 411.932C317.696 412.192 317.911 419.867 317.911 420.858C317.911 421.959 318.324 424.975 317.498 425.799C316.909 426.397 312.02 426.214 311.144 426.214C309.327 426.214 302.104 427.426 300.694 426.01C300.232 425.545 300.81 422.861 300.898 422.302C301.206 420.459 301.691 410.704 300.859 410.748C297.638 410.936 291.246 412.95 291.268 413.238Z" fill="#00B4C8"></path> <mask id="mask3_14:1635" style="mask-type:alpha" maskUnits="userSpaceOnUse" x="240" y="410" width="126" height="246"> <path d="M291.268 413.238C291.109 413.266 290.767 418.168 290.663 418.882C289.639 426.115 288.306 433.104 287.579 440.425C284.926 467.086 278.12 495.252 272.967 521.139C269.68 537.657 264.097 554.927 260.028 571.301C255.916 587.819 253.229 602.196 249.545 618.841C247.701 627.202 245.157 636.93 243.115 645.137C242.856 646.166 240.235 654.051 241.177 654.998C242.327 656.154 246.831 655.712 249.595 655.667C255.42 655.573 266.531 655.147 272.383 655.147C274.376 655.147 277.245 655.147 279.414 655.153C280.053 655.153 280.136 653.26 280.29 652.64C280.84 650.427 280.835 648.108 281.484 645.839C283.411 639.055 284.381 631.009 286.098 624.103C288.119 615.969 290.613 607.486 292.909 599.429C297.055 584.87 298.8 575.523 301.927 564.002C304.741 553.621 305.77 542.604 307.868 532.079C308.551 528.648 309.487 525.162 310.329 521.781C310.61 520.641 323.428 550.257 326.125 561.114C327.105 565.043 326.951 568.379 326.12 573.083C324.11 584.427 322.255 595.671 320.366 607.049C318.693 617.153 317.079 627.103 315.653 637.118C315.483 638.325 313.209 645.369 314.013 646.183C315.092 647.267 321.93 647.865 323.521 648.064C331.455 649.06 340.54 652.153 347.625 652.153C348.237 652.153 348.374 649.492 348.44 649.066C349.101 644.938 349.855 642.353 350.604 638.972C353.764 624.662 356.627 611.636 360.894 595.096C364.275 581.992 366.582 568.512 364.374 555.182C363.444 549.587 359.578 544.059 357.398 538.957C348.71 518.571 333.354 499.17 331.026 476.703C329.473 461.757 330.458 453.418 329.941 439.34C329.776 434.747 330.194 430.647 329.798 423.569C329.666 421.173 329.253 417.814 329.154 417.449C328.697 415.866 318.808 411.595 318.181 411.932C317.696 412.192 317.911 419.867 317.911 420.858C317.911 421.959 318.324 424.975 317.498 425.799C316.909 426.397 312.02 426.214 311.144 426.214C309.327 426.214 302.104 427.426 300.694 426.01C300.232 425.545 300.81 422.861 300.898 422.302C301.206 420.459 301.691 410.704 300.859 410.748C297.638 410.936 291.246 412.95 291.268 413.238Z" fill="white"></path> </mask> <g mask="url(#mask3_14:1635)"> <path d="M271.392 438.334C271.618 439.212 275.599 439.118 276.347 439.212C282.112 439.935 288.13 439.537 293.971 439.537C308.909 439.537 323.78 437.572 338.689 436.92C343.914 436.694 354.408 434.49 359.253 436.92" stroke="#FCF3E4" stroke-width="2.4" stroke-linecap="round" stroke-linejoin="round"></path> <path d="M268.804 461.614C264.934 462.172 277.746 461.62 279.282 461.471C286.45 460.786 293.635 460.642 300.826 460.162C321.748 458.765 342.703 456.562 363.493 456.562" stroke="#FCF3E4" stroke-width="2.4" stroke-linecap="round" stroke-linejoin="round"></path> <path d="M258.735 496.756C257.457 497.143 254.803 497.485 254.803 497.485C254.803 497.485 257.65 497.7 259.043 497.485C262.743 496.911 266.448 496.138 270.143 495.519C278.12 494.183 286.032 492.488 293.972 490.936C312.576 487.297 331.196 483.884 350.114 482.421C358.252 481.797 368.597 479.908 376.228 483.735" stroke="#FCF3E4" stroke-width="2.4" stroke-linecap="round" stroke-linejoin="round"></path> <path d="M241.182 537.033C235.418 540.048 255.349 536.84 257.088 536.437C269.085 533.687 281.005 530.429 292.992 527.602C314.194 522.599 335.601 518.938 357.294 517.127C370.205 516.044 384.861 513.57 397.442 517.778" stroke="#FCF3E4" stroke-width="2.4" stroke-linecap="round" stroke-linejoin="round"></path> <path d="M239.497 574.125C238.908 574.406 231.31 578.675 231.629 578.995C233.342 580.712 241.6 578.968 243.379 578.669C252.21 577.195 260.761 574.671 269.493 572.777C299.642 566.239 330.987 560.27 361.863 558.371C372.115 557.741 382.697 556.924 392.872 558.702C395.179 559.105 399.98 559.613 400.382 562.628" stroke="#FCF3E4" stroke-width="2.4" stroke-linecap="round" stroke-linejoin="round"></path> <path d="M234.79 608.665C231.685 611.199 245.323 609.708 247.294 609.443C258.503 607.941 269.46 604.987 280.587 602.894C308.463 597.654 337.115 593.877 365.453 592.419C373.233 592.021 386.199 589.702 393.197 594.385" stroke="#FCF3E4" stroke-width="2.4" stroke-linecap="round" stroke-linejoin="round"></path> <path d="M227.566 642.199C249.903 641.233 272.383 635.363 294.621 632.685C329.825 628.45 364.731 625.733 400.051 623.519" stroke="#FCF3E4" stroke-width="2.4" stroke-linecap="round" stroke-linejoin="round"></path> <path d="M298.183 409.421C297.312 410.856 298.151 413.006 297.905 414.61C297.011 420.369 296.603 426.266 295.892 432.111C294.671 442.136 294.359 452.212 293.358 462.23C292.209 473.773 288.925 484.981 288.008 496.577C286.907 510.44 281.786 523.303 278.967 536.726C275.542 553.038 271.663 569.102 267.818 585.297C264.699 598.42 262.433 612.041 258.552 625.001C253.058 643.346 246.901 662.533 244.403 681.574" stroke="#FCF3E4" stroke-width="2.4" stroke-linecap="round" stroke-linejoin="round"></path> <path d="M309.269 418.612C305.299 455.571 305.69 496.671 298.263 533.9C296.033 545.093 294.106 556.446 291.441 567.573C288.044 581.759 284.003 595.829 280.854 610.048C278.519 620.584 277.545 631.28 275.783 641.904C273.983 652.711 271.813 663.418 271.813 674.423" stroke="#FCF3E4" stroke-width="2.4" stroke-linecap="round" stroke-linejoin="round"></path> <path d="M317.181 425.233C317.687 427.002 316.843 429.472 316.86 431.316C316.904 436.242 316.717 441.186 316.762 446.139C316.927 464.581 315.644 483.783 317.726 502.098C319.118 514.311 324.799 523.565 329.591 534.738C332.989 542.654 335.544 551.108 338.376 558.996C342.559 570.665 336.591 585.463 334.314 596.859C331.604 610.424 328.65 624.35 326.815 638.078C325.548 647.571 324.954 658.587 321.297 667.549" stroke="#FCF3E4" stroke-width="2.4" stroke-linecap="round" stroke-linejoin="round"></path> <path d="M323.376 410.543C321.917 412.77 323.264 417.133 323.296 419.684C323.399 428.043 324.161 436.317 324.264 444.672C324.445 459.42 324.021 474.628 326.569 488.894C327.356 493.28 326.815 498.136 328.282 502.37C328.825 503.937 330.62 504.859 331.202 506.536C333.475 513.113 339.025 518.899 341.365 525.657C345.265 536.93 349.658 547.6 351.482 559.385C352.851 568.198 351.032 577.907 350.275 586.609C348.678 604.924 344.78 622.467 341.23 640.486C339.551 649.011 336.384 658.83 336.491 667.532" stroke="#FCF3E4" stroke-width="2.4" stroke-linecap="round" stroke-linejoin="round"></path> </g> <path fill-rule="evenodd" clip-rule="evenodd" d="M274.257 472.053L288.273 467.225L299.947 458.463L308.294 456.408L316.387 452.816L319.761 460.683L317.719 469.471L315.289 476.778L315.45 481.829L312.424 488.666L311.18 492.837L307.278 498.706L296.501 503.83L285.946 505.957L275.93 505.765L266.987 505.631L274.257 472.053Z" fill="#FDF4E6"></path> <path fill-rule="evenodd" clip-rule="evenodd" d="M422.25 453.738L435.137 457.769L447.225 464.984L451.645 476.08L452.883 486.079L449.806 495.788L446.443 502.262L440.655 505.879L432.214 507.075L430.484 500.916L426.494 502.433L421.395 501.672L414.882 497.169L409.385 496.569L401.473 495.555L394.219 489.996L407.177 462.836L422.25 453.738Z" fill="#FDF4E6"></path> <path fill-rule="evenodd" clip-rule="evenodd" d="M218.482 499.245C217.006 499.466 215.762 501.851 214.787 502.829C211.539 506.092 208.511 512.382 213.284 515.573C219.159 519.5 227.186 517.169 233.099 514.204C237.812 511.841 243.037 510.123 246.622 506.528C246.858 506.297 244.584 506.015 244.436 505.982C242.641 505.529 240.67 505.661 238.836 505.297C233.529 504.231 228.15 501.724 223.261 500.09C222.633 499.88 219.164 498.825 219.164 498.306" fill="#320078"></path> <path d="M218.482 499.245C217.006 499.466 215.762 501.851 214.787 502.829C211.539 506.092 208.511 512.382 213.284 515.573C219.159 519.5 227.186 517.169 233.099 514.204C237.812 511.841 243.037 510.123 246.622 506.528C246.858 506.297 244.584 506.015 244.436 505.982C242.641 505.529 240.67 505.661 238.836 505.297C233.529 504.231 228.15 501.724 223.261 500.09C222.633 499.88 219.164 498.825 219.164 498.306" stroke="#320078" stroke-width="2.4" stroke-linecap="round" stroke-linejoin="round"></path> <path fill-rule="evenodd" clip-rule="evenodd" d="M255.668 469.404C255.31 470.74 258.134 468.145 259.329 467.449C261.68 466.08 263.97 464.611 266.294 463.203C273.534 458.813 280.741 454.368 288.02 450.049C299.912 442.992 311.832 435.985 323.818 429.082C330.552 425.2 336.96 421.307 343.667 417.376C343.887 417.249 348.748 414.013 349.602 414.167C352.421 414.692 354.607 417.729 356.539 419.85C358.488 421.987 360.134 424.179 361.725 426.598C363.289 428.983 356.088 432.12 353.737 433.605C346.563 438.144 339.262 442.479 332.016 446.896C326.742 450.11 321.456 453.302 316.165 456.488C314.398 457.554 312.52 458.443 310.836 459.641C309.999 460.238 309.58 462.275 308.65 461.833C305.82 460.486 306.315 453.341 301.272 456.488C298.04 458.504 295.381 461.37 292.121 463.341C281.908 469.498 269.972 469.095 258.509 469.095" fill="#320078"></path> <path d="M255.668 469.404C255.31 470.74 258.134 468.145 259.329 467.449C261.68 466.08 263.97 464.611 266.294 463.203C273.534 458.813 280.741 454.368 288.02 450.049C299.912 442.992 311.832 435.985 323.818 429.082C330.552 425.2 336.96 421.307 343.667 417.376C343.887 417.249 348.748 414.013 349.602 414.167C352.421 414.692 354.607 417.729 356.539 419.85C358.488 421.987 360.134 424.179 361.725 426.598C363.289 428.983 356.088 432.12 353.737 433.605C346.563 438.144 339.262 442.479 332.016 446.896C326.742 450.11 321.456 453.302 316.165 456.488C314.398 457.554 312.52 458.443 310.836 459.641C309.999 460.238 309.58 462.275 308.65 461.833C305.82 460.486 306.315 453.341 301.272 456.488C298.04 458.504 295.381 461.37 292.121 463.341C281.908 469.498 269.972 469.095 258.509 469.095" stroke="#320078" stroke-width="2.4" stroke-linecap="round" stroke-linejoin="round"></path> <path fill-rule="evenodd" clip-rule="evenodd" d="M387.531 363.614C382.988 362.857 379.233 363.166 378.165 363.304C376.497 363.514 374.669 363.884 373.05 364.348C366.631 366.187 361.141 370.4 356.225 374.785C353.962 376.8 351.501 379.445 350.416 382.35C349.42 385.017 347.867 387.966 347.47 390.787C346.667 396.409 346.501 402.428 347.206 408.093C347.685 411.92 350.064 415.912 352.238 418.961C353.009 420.043 353.45 421.484 354.402 422.439C362.116 430.176 370.061 437.719 381.893 436.532C387.365 435.979 393.934 434.963 398.542 431.661C408.029 424.864 416.909 415.294 418.137 402.958C418.446 399.899 418.302 397.121 417.967 394.09C417.592 390.721 416.97 386.712 415.28 383.741C411.31 376.778 405.386 370.56 398.195 366.954C395.079 365.392 390.911 364.182 387.531 363.614Z" fill="#320078" stroke="#320078" stroke-width="2.4" stroke-linecap="round" stroke-linejoin="round"></path> <path fill-rule="evenodd" clip-rule="evenodd" d="M385.777 376.35C382.829 375.859 380.393 376.06 379.7 376.149C378.617 376.285 377.431 376.525 376.381 376.826C372.215 378.02 368.653 380.754 365.463 383.599C363.994 384.906 362.397 386.623 361.693 388.508C361.047 390.238 360.039 392.152 359.782 393.983C359.26 397.63 359.153 401.536 359.611 405.212C359.921 407.696 361.465 410.286 362.876 412.264C363.376 412.966 363.662 413.902 364.28 414.521C369.285 419.542 374.441 424.436 382.118 423.666C385.67 423.307 389.932 422.648 392.922 420.505C399.078 416.095 404.841 409.885 405.637 401.88C405.837 399.895 405.744 398.093 405.526 396.125C405.284 393.94 404.88 391.338 403.783 389.41C401.207 384.892 397.363 380.857 392.697 378.518C390.675 377.504 387.97 376.719 385.777 376.35Z" fill="#FDF4E6"></path> <path d="M388.236 373.354C387.669 373.509 386.771 375.624 386.491 376.182C385.125 378.921 383.468 381.461 381.948 384.122C376.883 393.013 371.564 402.152 367.435 411.473C366.45 413.698 363.185 417.232 363.185 419.557" stroke="#320078" stroke-width="2.4" stroke-linecap="round" stroke-linejoin="round"></path> <path d="M399.672 376.182C399.754 376.993 398.972 378.098 398.658 378.832C397.21 382.223 395.333 385.359 393.676 388.683C388.825 398.413 383.991 408.253 379.162 417.939C377.984 420.308 376.982 422.909 375.644 425.145C375.182 425.918 373.888 427.983 373.888 428.674" stroke="#320078" stroke-width="2.4" stroke-linecap="round" stroke-linejoin="round"></path> <path d="M251.736 657.113C251.637 660.294 249.743 664.242 248.565 667.202C248.174 668.185 247.855 670.035 247.101 670.791C243.797 674.104 239.073 676.346 234.988 678.621C228.744 682.1 222.396 685.38 216.042 688.572C212.915 690.135 209.524 691.416 206.286 692.807C205.163 693.293 203.506 693.636 202.625 694.525C202.047 695.105 201.667 696.739 201.326 697.54C200.758 698.871 200.775 700.406 200.428 701.781C200.219 702.631 200.103 703.758 200.103 704.636C200.103 705.69 199.784 707.005 200.268 707.976C201.232 709.915 203.142 709.777 205.064 710.014C208.021 710.384 211.038 710.014 214.011 710.262C225.287 711.201 236.53 710.262 247.833 710.262C252.612 710.262 257.385 710.097 262.142 710.097C263.178 710.097 264.477 709.931 265.473 710.18C265.672 710.229 266.69 710.428 266.855 710.262C267.252 709.865 266.999 708.761 267.263 708.219C268.369 706.011 267.835 702.67 268.32 700.229C269.052 696.568 269.449 692.653 269.867 688.898C270.478 683.387 272.08 678.02 272.631 672.503C272.978 669.019 273.165 665.186 274.255 661.906C274.475 661.244 274.613 659.67 275.07 659.212" stroke="#320078" stroke-width="2.4" stroke-linecap="round" stroke-linejoin="round"></path> <path d="M200.72 699.826C200.94 700.34 203.775 700.069 204.249 700.069C208.422 700.069 212.711 699.771 216.852 699.252C224.631 698.28 232.78 698.324 240.598 698.843C249.429 699.434 258.47 698.517 267.263 698.517" stroke="#320078" stroke-width="2.4" stroke-linecap="round" stroke-linejoin="round"></path> <path d="M218.228 688.705C218.283 689.483 219.605 690.184 220.106 690.687C221.658 692.244 223.068 694.05 224.334 695.828C224.654 696.275 225.496 697.948 226.124 697.948" stroke="#320078" stroke-width="2.4" stroke-linecap="round" stroke-linejoin="round"></path> <path d="M372.423 440.772C373.888 441.507 376.85 442.943 378.375 443.622C384.872 446.515 391.727 448.846 398.697 450.243C406.064 451.723 413.75 451.96 421.188 453.451C425.273 454.268 428.792 455.831 432.635 457.278C435.195 458.239 438.129 458.984 440.376 460.486C447.379 465.169 452.059 470.702 453.474 479.211C454.014 482.447 453.397 485.087 452.753 488.317" stroke="#320078" stroke-width="2.4" stroke-linecap="round" stroke-linejoin="round"></path> <path d="M425.455 461.226C426.507 461.447 428.098 462.038 428.819 462.347C431.902 463.672 434.391 465.351 437.177 467.212C446.542 473.474 455.897 487.621 448.42 498.87" stroke="#320078" stroke-width="2.4" stroke-linecap="round" stroke-linejoin="round"></path> <path d="M421.32 467.306C422.08 467.637 423.148 467.924 423.682 468.178C424.277 468.46 425.058 468.719 425.631 469.062C428.021 470.47 430.19 471.983 432.431 473.623C439.627 478.902 444.742 486.014 446.663 494.833C447.291 497.715 447.907 501.658 445.529 504.044" stroke="#320078" stroke-width="2.4" stroke-linecap="round" stroke-linejoin="round"></path> <path d="M414.84 473.568C415.545 473.811 416.117 473.866 416.751 474.037C418.188 474.435 419.619 474.877 420.979 475.49C425.549 477.533 430.559 480.007 433.769 484.076C435.922 486.799 437.926 489.543 438.966 492.867C440.238 496.937 439.159 497.02 439.594 501.31C439.941 504.74 441.995 506.092 444.379 504.9" stroke="#320078" stroke-width="2.4" stroke-linecap="round" stroke-linejoin="round"></path> <path d="M406.686 480.465C407.429 480.592 410.771 481.271 411.388 481.486C414.989 482.756 418.584 484.794 421.7 486.97C426.006 489.979 429.221 494.419 430.366 499.593C430.807 501.586 430.443 504.099 431.396 506.01C431.715 506.645 433.312 507.882 433.807 507.915C436.307 508.08 439.831 506.131 439.831 502.779" stroke="#320078" stroke-width="2.4" stroke-linecap="round" stroke-linejoin="round"></path> <path d="M358.02 467.538C359.281 468.123 362.094 469.564 363.3 470.26C369.246 473.678 375.33 476.875 381.012 480.713C384.217 482.878 386.804 485.854 389.876 488.201C392.943 490.542 396.059 492.845 399.412 494.745C404.225 497.478 410.275 495.335 415.264 497.721C418.743 499.389 417.884 500.371 421.37 502.315C424.601 504.115 429.678 502.602 429.678 498.317" stroke="#320078" stroke-width="2.4" stroke-linecap="round" stroke-linejoin="round"></path> <path d="M234.487 680.328C234.564 681.604 236.739 683.006 237.427 684.083C239.635 687.567 242.669 691.002 244.337 694.768C244.766 695.734 246.126 697.132 246.126 698.192" stroke="#320078" stroke-width="2.4" stroke-linecap="round" stroke-linejoin="round"></path> <path d="M344.399 656.042C344.151 655.981 342.758 659.493 342.61 659.902C341.586 662.724 338.442 667.666 340.572 670.515C342.824 673.53 346.304 675.789 349.112 678.207C353.588 682.051 357.767 686.297 362.706 689.599C364.925 691.085 367.182 692.449 369.401 693.785C370.441 694.409 372.776 694.508 373.381 695.729C375.099 699.169 372.908 704.227 371.636 707.413C371.218 708.468 370.651 710.34 369.693 710.82C366.373 712.488 362.777 711.825 359.11 712.284C355.587 712.725 351.749 712.88 348.242 712.377C345.627 712.008 342.896 710.76 340.473 709.848C334.092 707.446 327.805 704.812 321.253 702.935C317.459 701.847 313.501 700.969 309.702 700.207C307.631 699.793 306.2 699.406 305.82 697.093C304.867 691.383 306.739 687.02 308.925 681.907C311.535 675.789 314.53 669.842 317.272 663.795C318.577 660.923 319.86 657.975 320.961 655.031C321.082 654.711 321.787 652.11 322.029 652.11" stroke="#320078" stroke-width="2.4" stroke-linecap="round" stroke-linejoin="round"></path> <path d="M372.644 701.262C365.084 702.477 357.299 701.676 349.795 700.599C345.39 699.97 341.112 696.85 336.884 695.436C331.466 693.63 325.971 692.106 320.377 690.864C317.63 690.251 314.948 689.113 312.223 688.329C311.006 687.981 309.404 687.164 308.242 687.164" stroke="#320078" stroke-width="2.4" stroke-linecap="round" stroke-linejoin="round"></path> <path d="M349.706 679.583C348.842 679.483 346.871 680.792 346.007 681.223C341.921 683.271 339.009 685.905 335.815 689.108C334.78 690.146 332.027 692.659 332.027 694.271" stroke="#320078" stroke-width="2.4" stroke-linecap="round" stroke-linejoin="round"></path> <path d="M358.362 686.827C354.287 688.257 350.362 691.361 347.268 694.464C346.513 695.221 344.355 696.827 344.355 697.871" stroke="#320078" stroke-width="2.4" stroke-linecap="round" stroke-linejoin="round"></path> <path d="M236.662 447.333C231.227 450.243 226.415 454.909 222.556 459.752C216.934 466.798 208.224 478.184 211.919 488.063C215.316 497.147 226.124 499.543 234.377 502.022C251.538 507.191 270.109 508.196 287.821 505.976C296.768 504.855 305.71 501.581 310.665 494.12" stroke="#320078" stroke-width="2.4" stroke-linecap="round" stroke-linejoin="round"></path> <path d="M291.296 497.61C291.141 498.102 293.068 498.074 293.465 498.074C295.926 498.074 297.903 497.29 300.292 496.887C306.514 495.849 314.475 491.381 314.475 484.247" stroke="#320078" stroke-width="2.4" stroke-linecap="round" stroke-linejoin="round"></path> <path d="M295.419 489.013C295.095 488.941 295.882 489.25 296.091 489.25H298.194C300.248 489.25 303.006 488.875 304.889 487.931C307.328 486.71 311.05 486.23 313.032 484.247C315.725 481.542 317.101 478.295 317.101 474.369" stroke="#320078" stroke-width="2.4" stroke-linecap="round" stroke-linejoin="round"></path> <path d="M295.766 482.618C298.591 483.341 302.847 481.922 305.412 480.823C307.802 479.796 311.287 478.885 313.165 477.002C318.511 471.64 319.331 464.97 319.331 457.642" stroke="#320078" stroke-width="2.4" stroke-linecap="round" stroke-linejoin="round"></path> <path d="M295.727 472.199C295.584 471.878 298.134 470.713 298.453 470.547C301.156 469.195 303.639 467.748 306.199 466.202C308.275 464.954 310.555 463.06 312.504 461.596C314.271 460.265 314.497 458.46 316.705 457.908C317.91 457.604 318.654 456.196 319.595 456.196" stroke="#320078" stroke-width="2.4" stroke-linecap="round" stroke-linejoin="round"></path> <path d="M306.128 465.682C305.302 463.777 308.633 459.961 306.073 458.04C303.155 455.842 298.359 459.321 296.223 461.463C288.834 468.874 279.497 471.602 269.305 471.602C262.462 471.602 255.932 470.851 249.215 469.625C247.139 469.249 245.058 468.918 243.043 468.311C242.371 468.106 239.816 467.653 240.02 467.653" stroke="#320078" stroke-width="2.4" stroke-linecap="round" stroke-linejoin="round"></path> <path d="M304.449 395.172C302.252 394.951 300.546 395.42 298.993 397.756C297.297 400.313 298.74 404.543 301.927 404.94C303.029 405.078 304.08 404.72 305.121 404.421" stroke="#320078" stroke-width="2.4" stroke-linecap="round" stroke-linejoin="round"></path> <path d="M318.175 390.02C318.054 390.567 319.749 392.753 320.047 393.344C320.955 395.161 321.33 397.662 320.994 399.661C320.553 402.334 317.723 403.538 315.477 403.991C314.992 404.085 313.396 403.996 313.06 404.333C312.922 404.471 313.06 405.526 313.06 405.719C313.06 407.188 312.961 408.966 313.319 410.391" stroke="#320078" stroke-width="2.4" stroke-linecap="round" stroke-linejoin="round"></path> <path d="M309.261 393.902C309.503 394.366 310.599 393.979 310.962 393.858C312.636 393.3 314.167 392.207 315.411 390.959C316.138 390.23 316.121 388.744 316.297 387.839C317.333 382.659 313.077 379.677 308.298 379.147C306.288 378.921 304.328 378.981 302.406 379.705C295.816 382.184 296.796 389.805 291.852 393.526C289.264 395.47 286.197 394.598 283.18 394.973C280.493 395.31 277.537 396.149 275.29 397.762C272.697 399.617 271.067 403.35 270.621 406.453C270.434 407.773 270.22 409.59 269.399 410.689C267.538 413.185 263.183 413.251 260.507 414.593C257.341 416.178 255.508 419.336 255.508 422.727C255.508 424.499 255.569 426.283 257.397 426.741" stroke="#320078" stroke-width="2.4" stroke-linecap="round" stroke-linejoin="round"></path> <path d="M333.608 492.205C331.13 492.983 327.953 492.293 325.376 492.58C324.864 492.635 323.466 492.481 323.08 492.867C322.965 492.983 323.08 493.806 323.08 493.961C323.08 495.325 323.389 496.506 323.714 497.809C324.842 502.332 329.456 506.634 334.439 505.634C335.089 505.502 335.832 505.419 336.388 505.005C336.718 504.756 337.208 504.198 337.533 504.198" stroke="#320078" stroke-width="2.4" stroke-linecap="round" stroke-linejoin="round"></path> <path fill-rule="evenodd" clip-rule="evenodd" d="M489.254 287.474C496.063 291.493 502.136 292.331 508.586 292.103C523.326 291.58 532.198 280.449 532.437 266.575C532.544 260.502 530.87 255.864 526.899 251.038C517.502 239.615 497.065 237.338 485.116 248.558C479.359 253.963 477.256 265.127 478.161 270.853C479.033 276.382 481.028 282.619 489.254 287.474Z" fill="#320078"></path> <path d="M494.799 279.3C494.03 284.603 493.099 290.816 492.351 295.503C492.051 297.377 491.574 301.079 492.455 302.837C493.858 305.627 497.951 306.906 500.714 307.3C505.196 307.94 507.776 306.331 508.86 305.031C510.271 303.338 510.345 300.028 510.632 297.929C511.519 291.413 512.038 288.223 512.771 281.73" stroke="#320078" stroke-width="2.4" stroke-linecap="round" stroke-linejoin="round"></path> <path d="M492.349 295.877C492.784 296.029 493.062 296.205 493.607 296.312C495.086 296.602 496.615 296.834 498.121 297.092C500.617 297.52 503.422 297.926 505.954 298.121C507.179 298.215 508.46 298.274 509.668 298.313" stroke="#320078" stroke-width="2.4" stroke-linecap="round" stroke-linejoin="round"></path> <path d="M466.523 251.652C467.11 251.732 468.86 252.057 469.152 252.105C470.479 252.326 471.427 252.491 473.035 252.787" stroke="#320078" stroke-width="2.4" stroke-linecap="round" stroke-linejoin="round"></path> <path d="M480.752 231.532C481.352 232.322 483.615 234.261 484.75 235.301" stroke="#320078" stroke-width="2.4" stroke-linecap="round" stroke-linejoin="round"></path> <path d="M509.92 228.002C509.785 228.933 509.414 232.035 509.297 232.987" stroke="#320078" stroke-width="2.4" stroke-linecap="round" stroke-linejoin="round"></path> <path d="M531.736 241.318C532.193 241.014 532.865 240.598 533.256 240.351C534.27 239.712 535.653 238.936 536.396 238.253" stroke="#320078" stroke-width="2.4" stroke-linecap="round" stroke-linejoin="round"></path> <path d="M538.855 260.802C540.192 260.852 543.149 260.976 544.465 261.032" stroke="#320078" stroke-width="2.4" stroke-linecap="round" stroke-linejoin="round"></path> <path d="M498.22 281.7C498.711 280.817 499.47 279.007 499.569 278.58C500.076 276.4 501.433 268.981 500.238 265.07C499.831 263.738 498.933 260.467 496.344 260.807C494.916 260.994 494.514 262.573 494.4 263.203C493.946 265.737 494.703 267.849 496.598 269.744C498.306 271.452 500.524 272.125 502.133 272.484C506.166 273.382 508.42 273.614 511.894 271.853C513.437 271.07 515.597 269.58 516.194 268.011C516.891 266.182 516.798 263.682 514.391 262.841C512.306 262.11 511.116 264.55 510.445 265.786C508.39 269.58 508.219 273.923 508.359 278.098C508.402 279.344 508.594 280.582 508.66 281.825" stroke="#FDF4E6" stroke-width="2.4" stroke-linecap="round" stroke-linejoin="round"></path> </svg>