<svg width="544" height="436" viewBox="0 0 544 436" fill="none" xmlns="http://www.w3.org/2000/svg">
<path fill-rule="evenodd" clip-rule="evenodd" d="M234.281 332.921C230.14 333.61 225.244 335.666 221.637 337.92C201.354 350.598 197.495 379.583 212.795 397.13C219.847 405.219 229.16 408.948 239.047 410.593C242.547 411.174 251.683 410.6 255.28 410.011C259.485 409.32 265.139 407.116 269.268 403.981C274.795 399.784 278.792 393.68 281.669 387.206C287.749 373.523 286.316 352.093 273.979 342.222C267.391 336.952 262.471 333.639 254.11 332.246C251.42 331.798 246.246 331.631 242.596 331.698C239.455 331.756 236.678 332.521 234.281 332.921Z" fill="#0046DC" stroke="#0046DC" stroke-width="2.62502" stroke-miterlimit="1.5" stroke-linecap="round" stroke-linejoin="round"/>
<path d="M218.352 341.327C218.402 341.48 230.937 358.271 235.591 363.7C237.714 366.179 239.617 369.149 241.89 371.421C242.683 372.215 245.175 375.046 245.241 374.977C245.468 374.74 248.45 370.025 249.44 368.469C252.641 363.438 255.584 358.715 259.161 353.947C261.799 350.431 264.405 346.673 266.882 343.075C267.704 341.881 268.725 340.115 269.438 338.922" stroke="#FCF3E4" stroke-width="2.62502" stroke-miterlimit="1.5" stroke-linecap="round" stroke-linejoin="round"/>
<path d="M245.389 374.94C247.478 373.895 251.868 372.016 254.018 371.096C259.958 368.551 264.725 366.292 270.868 363.21C272.577 362.352 274.763 361.239 276.495 360.423C278.539 359.461 280.636 358.121 282.573 356.911" stroke="#FCF3E4" stroke-width="2.62502" stroke-miterlimit="1.5" stroke-linecap="round" stroke-linejoin="round"/>
<path d="M91.043 201.364C94.9931 193.464 93.4822 196.572 98.1335 189.043C110.723 168.678 124.687 147.694 141.625 130.756C153.172 119.209 171.872 113.123 188.126 116.374C198.825 118.514 207.632 125.028 219.285 123.085C229.094 121.451 237.714 112.589 244.694 106.308C257.816 94.4958 270.595 81.3535 283.01 68.6572" stroke="#E64632" stroke-width="15.7753" stroke-miterlimit="1.5" stroke-linecap="round" stroke-linejoin="round"/>
<path fill-rule="evenodd" clip-rule="evenodd" d="M197.611 200.888C200.967 201.407 204.018 201.937 206.159 202.364C215.388 204.207 224.834 206.818 233.565 210.21C226.571 233.681 215.39 271.005 214.226 279.065L272.905 287.541C274.243 278.287 290.653 226.603 294.968 211.67C301.103 190.435 290.091 171.556 270.026 161.546C254.349 153.726 235.794 147.821 217.761 144.223C210.303 142.734 193.895 140.248 185.511 139.456C172.997 138.277 159.602 146.051 154.024 152.675C148.234 159.548 144.502 170.807 142.747 177.118C140.311 185.884 139.328 188.703 136.894 197.607C127.692 231.266 119.997 259.58 109.984 293.568C105.212 309.763 96.4618 342.467 91.8945 357.279L148.549 374.753C153.168 359.772 162.028 326.702 166.854 310.323C176.985 275.938 184.774 247.294 194.082 213.241C195.587 207.742 196.53 204.592 197.611 200.888Z" fill="#006964"/>
<path d="M106.803 367.259C106.538 367.81 106.371 365.134 106.371 364.792C106.371 363.082 106.883 361.26 107.297 359.602C108.587 354.443 109.254 349.114 110.82 344.035C115.338 329.343 118.788 313.776 122.31 298.809C126.13 282.579 130.598 265.78 136.21 250.064C138.336 244.112 139.361 237.745 141.215 231.716C145.159 218.901 148.918 205.891 152.893 192.978C157.018 179.57 159.258 161.935 173.65 155.54C182.147 151.763 191.85 152.691 200.525 154.799C221.216 159.824 242.034 163.683 259.341 172.337C267.814 176.573 282.018 181.573 283.243 192.612C284.744 206.108 279.669 221.39 277.045 234.504C274.288 248.288 269.546 263.457 265.582 276.939C263.356 284.506 260.274 291.984 258.725 299.738" stroke="#FCF3E4" stroke-width="2.62502" stroke-miterlimit="1.5" stroke-linecap="round" stroke-linejoin="round"/>
<path d="M118.293 370.297C118.281 370.403 119.718 365.296 120.296 363.751C122.074 359.009 123.314 353.506 124.375 348.553C127.588 333.56 133.019 318.73 136.977 303.886C145.56 271.702 150.879 238.898 162.239 207.658C167.234 193.927 168.035 179.515 177.997 169.556C179.11 168.442 182.032 167.181 183.506 166.811C189.426 165.332 197.438 167.159 203.046 168.864C217.679 173.317 232.274 176.52 247.203 183.739C255.173 187.594 260.97 189.147 265.177 197.56C272.151 211.508 262.776 229.336 259.542 243.352C257.016 254.294 247.382 281.186 244.201 291.999" stroke="#FCF3E4" stroke-width="2.62502" stroke-miterlimit="1.5" stroke-linecap="round" stroke-linejoin="round"/>
<path d="M132.817 378.155C131.688 375.933 134.567 369.35 134.977 367.092C136.902 356.509 140.501 345.545 143.318 335.212C153.352 298.419 164.993 261.727 174.181 224.98C176.518 215.625 178.547 206.32 181.593 197.178C182.779 193.626 183.97 188.541 187.155 186.614C193.325 182.877 197.5 184.771 204.394 186.686C214.95 189.618 223.009 191.42 231.627 194.866C237.179 197.088 246.22 199.216 249.049 204.876C251.231 209.238 248.454 216.624 247.512 221.026C245.655 229.684 241.892 239.876 239.342 248.375C233.757 266.991 229.308 285.994 223.958 304.72" stroke="#FCF3E4" stroke-width="2.62502" stroke-miterlimit="1.5" stroke-linecap="round" stroke-linejoin="round"/>
<path d="M165.533 77.3602C164.197 84.061 170.058 90.3398 177.062 88.0051C178.071 87.6695 179.551 86.2932 179.915 85.4694C181.679 81.4751 181.434 79.6347 181.434 75.8955" stroke="#320078" stroke-width="2.62502" stroke-miterlimit="1.5" stroke-linecap="round" stroke-linejoin="round"/>
<path d="M274.186 49.4397C273.462 47.0694 273.054 44.7923 272.894 42.3213C272.754 40.186 272.217 38.4703 272.514 36.3499C272.732 34.7852 274.028 32.4877 274.525 30.9883C275.142 29.142 275.567 27.7694 276.017 25.8747C276.967 21.8633 276.632 17.2775 278.925 13.8516C280.099 12.0967 283.157 12.4418 284.31 13.9057C286.082 16.1511 287.155 19.3009 287.22 22.1542C287.252 23.5734 286.665 30.8447 286.782 31.2102C287.751 34.2034 290.448 35.2776 299.212 51.5955" stroke="#320078" stroke-width="2.63408" stroke-miterlimit="1.5" stroke-linecap="round" stroke-linejoin="round"/>
<path d="M287.115 31.0366C287.112 31.0366 289.31 25.2237 289.593 24.5878C290.392 22.79 291.316 20.3563 292.284 18.5791C292.908 17.4321 293.495 16.274 294.223 15.1812C295.704 12.9564 297.045 10.7203 298.8 8.71183C299.4 8.02554 300.451 6.65483 301.19 6.11215C302.706 4.99693 303.871 3.93393 305.962 4.77128C309.114 6.03382 308.606 9.60326 307.712 12.2925C307.449 13.0794 305.284 19.6794 304.079 22.3947C303.312 24.1234 300.348 30.3336 299.646 32.0885" stroke="#320078" stroke-width="2.63408" stroke-miterlimit="1.5" stroke-linecap="round" stroke-linejoin="round"/>
<path d="M303.295 23.7863C304.079 22.0016 304.856 20.4444 305.51 19.0028C306.352 17.1509 307.24 15.1797 308.207 13.3838C309.636 10.7338 310.504 8.43622 312.584 6.12187C313.223 5.41134 314.384 3.47929 317.629 4.39123C320.657 5.24163 320.337 8.79801 319.84 10.9296C319.074 14.2044 317.37 17.315 316.066 20.297C313.426 26.3393 308.404 34.1682 305.316 38.3083" stroke="#320078" stroke-width="2.63408" stroke-miterlimit="1.5" stroke-linecap="round" stroke-linejoin="round"/>
<path d="M318.442 15.8268C320.048 15.1816 322.02 15.7672 322.676 16.2259C324.757 17.6843 325.278 20.2336 324.883 22.8035C324.114 27.8089 321.37 31.5331 318.636 35.6378C316.415 38.9704 311.345 45.2271 308.191 47.603" stroke="#320078" stroke-width="2.63408" stroke-miterlimit="1.5" stroke-linecap="round" stroke-linejoin="round"/>
<path d="M316.913 38.2782C317.545 37.646 319.499 36.21 320.201 35.6636C321.821 34.401 323.673 33.4238 325.765 33.4238C326.191 33.4238 327.769 33.6588 328.654 34.6584C329.846 36.0049 329.885 37.5546 329.95 38.2726C330.247 41.5418 327.896 44.6748 325.854 47.06C322.973 50.4262 319.679 53.2534 316.375 56.1738C312.31 59.7638 308.27 63.4321 303.934 66.6882" stroke="#320078" stroke-width="2.63408" stroke-miterlimit="1.5" stroke-linecap="round" stroke-linejoin="round"/>
<path d="M86.868 229.382C85.0135 232.163 82.5843 237.763 81.5797 240.602C80.4666 243.746 79.6248 246.957 79.5484 250.356C79.4801 253.459 81.7123 258.355 84.698 256C85.6564 255.243 86.0121 254.16 86.3074 253.716C87.4567 251.992 88.3327 250.306 89.4739 248.594C93.9424 241.894 96.2329 234.61 99.8435 227.389C100.541 225.995 101.216 224.261 101.626 222.736C101.931 221.604 102.367 220.029 102.612 218.106" stroke="#320078" stroke-width="2.62502" stroke-miterlimit="1.5" stroke-linecap="round" stroke-linejoin="round"/>
<path d="M79.3875 224.174C77.764 225.868 75.4896 231.216 74.5091 233.374C73.621 235.325 73.0886 237.161 72.528 239.215C70.555 246.454 67.4708 257.619 73.5186 263.667C74.9451 265.094 78.0815 265.534 79.9541 265.845C81.4972 266.102 83.0503 266.104 84.6074 265.845C89.6345 265.007 93.2913 257.832 94.4084 253.372C94.987 251.057 95.0694 246.599 90.842 246.456" stroke="#320078" stroke-width="2.62502" stroke-miterlimit="1.5" stroke-linecap="round" stroke-linejoin="round"/>
<path d="M73.1922 219.703C71.5668 221.869 70.4517 224.334 69.9594 225.321C68.7056 227.828 67.7352 230.434 66.6924 233.042C63.0176 242.232 61.4162 250.912 63.327 260.464C63.7509 262.586 65.5431 266.036 70.1583 267.989C74.9905 270.034 82.304 269.208 85.7016 265.811" stroke="#320078" stroke-width="2.62502" stroke-miterlimit="1.5" stroke-linecap="round" stroke-linejoin="round"/>
<path d="M69.7255 210.655C67.5576 213.418 65.1968 217.553 63.3503 221.246C61.8434 224.262 60.2159 227.756 59.0405 231.234C57.1679 236.775 55.9946 242.899 56.1412 249.282C56.1874 251.264 56.5933 254.551 57.2845 256.383C58.7773 260.341 60.0009 266.142 70.9291 268.549" stroke="#320078" stroke-width="2.62502" stroke-miterlimit="1.5" stroke-linecap="round" stroke-linejoin="round"/>
<path d="M260.919 290.941C260.325 293.338 257.216 307.061 257.996 307.84C259.696 309.54 263.089 310.655 265.195 311.919C269.278 314.368 272.07 315.351 276.356 318.073C277.992 319.112 285.271 323.888 285.271 324.175C285.271 324.443 271.928 326.269 268.454 326.269C263.913 326.269 245.131 328.075 245.055 327.961C243.72 325.962 240.976 317.043 240.638 317.043C239.985 317.043 235.211 326.725 234.703 327.235C234.46 327.477 232.632 327.235 232.328 327.235C229.939 327.235 222.168 326.892 222.184 326.721C222.425 324.059 227.371 303.832 228.7 296.774C229.29 293.629 230.466 288.532 230.817 286.551" stroke="#320078" stroke-width="2.62502" stroke-miterlimit="1.5" stroke-linecap="round" stroke-linejoin="round"/>
<path d="M104.462 365.32C104.156 366.843 103.375 370.842 103.093 372.385C102.243 377.06 101.307 381.738 100.722 386.415C100.546 387.826 100.128 391.754 99.9329 391.948C99.7119 392.169 93.3949 394.828 92.0407 395.579C86.9312 398.418 84.2047 400.1 78.8843 403.608C77.2508 404.687 72.708 407.954 72.9571 408.45C73.3208 409.177 75.76 409.141 76.415 409.141C79.8045 409.141 92.2657 408.991 98.0462 408.991C99.6013 408.991 113.053 408.812 113.328 408.673C114.355 408.161 119.159 400.176 120.937 398.398C121.204 398.131 122.064 400.351 122.221 400.769C123.087 403.077 125.339 409.322 125.679 409.662C126.008 409.991 134.728 410.379 134.921 409.991C135.321 409.194 134.785 400.849 134.911 397.779C135.293 388.446 136.975 378.907 137.479 375.843" stroke="#320078" stroke-width="2.62502" stroke-miterlimit="1.5" stroke-linecap="round" stroke-linejoin="round"/>
<path fill-rule="evenodd" clip-rule="evenodd" d="M422.193 195.375C425.665 197.45 433.668 202.276 436.557 204.444C438.982 206.263 443.342 208.935 447.865 212.602C458.634 221.328 474.463 219.672 483.191 208.903C491.919 198.133 490.261 182.305 479.492 173.577C474.357 169.416 469.448 166.323 466.695 164.26C462.151 160.85 447.769 152.144 446.471 151.365C438.239 146.428 430.801 144.198 423.447 143.941C415.583 143.665 407.401 145.488 398.105 151.2C389.553 156.454 385.579 159.534 378.013 164.284C375.29 165.994 372.525 167.764 369.968 169.683C358.879 177.999 356.628 193.755 364.945 204.844C373.261 215.933 389.017 218.183 400.106 209.867C401.565 208.774 403.164 207.802 404.717 206.827C411.448 202.602 415.273 199.719 422.193 195.375Z" fill="#0046DC"/>
<path d="M360.482 164.081C354.469 167.478 349.992 178.485 352.586 185.402C355.6 193.441 368.027 198.085 375.704 194.886C381.947 192.284 387.291 186.931 391.483 181.756C394.537 177.98 396.871 173.636 398.774 169.196C400.401 165.401 401.541 161.764 402.017 157.649C402.28 155.367 402.973 152.21 402.22 149.95C400.128 143.681 391.129 141.83 386.011 145.087C378.762 149.703 378.346 162.26 384.595 167.372C388.832 170.84 393.086 171.551 398.37 171.828C402.425 172.043 406.662 172.64 410.727 172.234C418.073 171.499 425.243 166.463 430.783 161.903C435.062 158.378 437.922 154.635 440.102 149.544C441.156 147.083 441.755 143.512 439.089 141.847C433.254 138.2 427.411 147.866 425.718 151.975C421.623 161.923 423.65 170.574 431.593 177.906C434.783 180.849 438.896 182.113 442.939 183.377C446.443 184.472 449.541 185.979 453.27 186.212C459.605 186.608 466.215 181.979 470.489 177.703C473.22 174.975 482.629 163.217 473.529 162.308C470.009 161.955 466.575 165.232 464.411 167.575C458.972 173.468 456.236 182.015 457.929 190.062C461.279 205.969 477.304 211.639 491.761 212.953C500.039 213.706 508.753 213.789 515.057 207.484" stroke="#FCF3E4" stroke-width="2.62502" stroke-miterlimit="1.5" stroke-linecap="round" stroke-linejoin="round"/>
<path d="M391.941 223.207C388.266 222.373 393.122 212.278 393.872 210.332C397.155 201.79 405.431 187.573 415.75 186.426C433.821 184.419 436.363 203.46 440.06 217.016" stroke="#FCF3E4" stroke-width="2.62502" stroke-miterlimit="1.5" stroke-linecap="round" stroke-linejoin="round"/>
<path fill-rule="evenodd" clip-rule="evenodd" d="M426.894 209.591C426.926 213.099 428.664 221.375 429.733 229.735C429.964 231.544 432.835 248.337 430.82 249.345C428.965 250.271 427.348 248.093 426.299 246.936C423.123 243.424 424.885 245.779 421.563 242.46C412.076 232.97 390.495 214.387 376.366 224.983C369.635 230.031 362.422 245.06 359.27 253.428C349.408 279.598 347.265 294.633 342.716 321.932C341.41 329.76 337.873 348.968 338.494 349.589C340.536 351.63 369.798 351.524 371.229 348.797C371.863 347.588 378.681 320.546 380.887 310.556C382.323 304.05 386.573 290.986 388.924 289.97C392.402 288.465 396.565 300.042 397.76 303.624C402.112 316.682 414.855 333.869 430 331.345C434.027 330.674 441.083 328.585 444.77 324.892C455.762 313.879 458.314 295.157 457.906 275.176C457.802 270.129 456.779 263.337 455.612 256.319C454.685 250.744 451.191 238.881 448.521 228.863C447.524 225.118 444.199 216.828 442.783 215.412C441.433 214.061 434.945 211.875 432.809 211.254C430.81 210.674 426.743 209.591 426.894 209.591Z" fill="#FFB400" stroke="#FFB400" stroke-width="5.26265" stroke-miterlimit="1.5" stroke-linecap="round" stroke-linejoin="round"/>
<path d="M425.313 121.438C420.772 123.618 408.172 121.278 411.602 114.418C412.554 112.511 415.351 110.868 417.36 110.366C420.217 109.652 423.653 107.886 426.747 108.66C432.244 110.034 439.331 113.434 439.331 119.538" stroke="#320078" stroke-width="2.62502" stroke-miterlimit="1.5" stroke-linecap="round" stroke-linejoin="round"/>
<path d="M430.284 108.213C428.392 108.348 426.22 104.715 426.899 102.68C428.359 98.2978 435.456 97.8617 438.843 100.12C439.332 100.446 439.715 102.093 439.91 102.68C440.648 104.894 440.413 106.582 439.484 108.44C437.897 111.615 431.377 110.835 431.377 107.16" stroke="#320078" stroke-width="2.62502" stroke-miterlimit="1.5" stroke-linecap="round" stroke-linejoin="round"/>
<path d="M105.703 141.792C101.619 142.813 98.0845 142.228 94.0319 141.274C82.8868 138.652 74.3737 128.465 79.2481 116.892C80.1221 114.816 81.3939 112.883 82.8787 111.186C86.0212 107.593 91.4159 105.164 96.236 106.128C98.8359 106.649 102.627 109.399 101.942 112.483C100.861 117.352 94.3614 118.328 90.789 116.245C83.3087 111.881 81.5707 102.769 87.287 96.0139C90.9819 91.6479 97.8293 89.8436 103.369 90.6955C106.005 91.1014 109.756 93.7114 108.685 96.9201C107.604 100.163 101.599 99.1985 99.7381 97.5691C95.1169 93.5265 93.3749 82.0137 97.9217 77.4689C101.37 74.021 107.345 72.273 111.928 74.3566C113.913 75.2587 118.52 80.2737 115.818 82.5261C113.459 84.4931 108.611 85.1762 106.222 82.7852C105.097 81.6601 105.069 79.2189 105.185 77.7281C105.784 69.9323 110.586 62.235 116.857 57.7564C122.173 53.959 128.878 52.2351 135.402 52.8278C140.823 53.3201 144.005 58.7972 142.922 63.8504C140.939 73.1048 123.698 73.7136 125.416 62.5544C126.913 52.8138 139.782 46.4727 148.628 46.4727C151.96 46.4727 157.007 46.9569 158.614 50.4931C160.3 54.2021 158.66 57.9091 155.243 59.832C152.209 61.5378 148.176 61.4554 146.943 57.7564C145.126 52.3094 151.357 48.7692 155.632 47.5114C164.34 44.9497 176.613 45.7936 182.996 53.087C186.88 57.5274 186.082 67.7543 180.402 70.5953C177.127 72.2328 173.293 71.9536 169.767 71.6321C167.736 71.4472 165.498 71.7667 163.671 70.8545" stroke="#320078" stroke-width="2.62502" stroke-miterlimit="1.5" stroke-linecap="round" stroke-linejoin="round"/>
<path d="M160.404 78.3935C159.446 77.9515 158.098 77.9495 157.278 78.1625C156.012 78.492 154.612 79.4564 154.278 80.6499C153.235 84.379 156.042 87.6982 159.8 86.9468" stroke="#320078" stroke-width="2.62502" stroke-miterlimit="1.5" stroke-linecap="round" stroke-linejoin="round"/>
<path d="M409.806 123.796C408.94 124.105 409.452 127.953 409.599 128.837C410.256 132.769 410.688 135.638 414.704 136.976C416.8 137.676 418.99 136.036 420.776 135.321C421.459 135.048 423.121 134.732 423.121 133.665" stroke="#320078" stroke-width="2.62502" stroke-miterlimit="1.5" stroke-linecap="round" stroke-linejoin="round"/>
<path d="M431.186 124.943C430.724 125.132 432.098 124.435 432.599 124.435C433.662 124.435 434.12 124.867 434.391 125.954C435.209 129.225 432.868 130.784 430.391 132.023" stroke="#320078" stroke-width="2.62502" stroke-miterlimit="1.5" stroke-linecap="round" stroke-linejoin="round"/>
<path d="M360.322 170.154C359.838 169.625 359.014 168.657 358.5 168.143C356.82 166.461 355.436 164.636 353.937 162.764C349.514 157.237 345.014 150.134 341.875 143.857C340.694 141.494 339.199 137.834 338.942 137.175C338.771 136.739 339.446 135.348 339.593 135.055C340.399 133.445 340.983 132.451 342.038 130.817C343.314 128.842 345.968 126.266 347.009 124.121C348.878 120.261 348.753 117.8 349.75 114.577C350.163 113.237 351.588 109.496 350.838 107.999C349.446 105.21 345.691 106.488 343.668 107.836C340.555 109.911 338.558 113.797 336.659 116.964C335.93 118.179 334.608 120.621 334.377 121.852" stroke="#320078" stroke-width="2.62502" stroke-miterlimit="1.5" stroke-linecap="round" stroke-linejoin="round"/>
<path d="M337.966 114.599C338.203 112.529 339.236 109.007 339.395 108.372C340.47 104.07 347.249 92.4652 340.21 90.1184C336.765 88.9691 334.384 93.8736 332.875 95.9853C328.808 101.677 327.777 112.465 327.777 119.425" stroke="#320078" stroke-width="2.62502" stroke-miterlimit="1.5" stroke-linecap="round" stroke-linejoin="round"/>
<path d="M336.056 89.5788C333.367 84.2985 327.191 87.453 325.061 92.6971C323.263 97.1294 321.858 101.644 321.314 106.551C320.864 110.587 321.631 115.128 322.128 119.1C322.274 120.268 322.704 122.229 323.084 123.346" stroke="#320078" stroke-width="2.62502" stroke-miterlimit="1.5" stroke-linecap="round" stroke-linejoin="round"/>
<path d="M323.11 97.2847C322.696 95.8943 320.825 95.0826 320.199 94.9842C319.096 94.8154 317.546 95.2855 316.775 95.7999C314.639 97.2244 314.219 101.03 313.841 103.298C312.479 111.474 313.697 122.076 317.428 129.539" stroke="#320078" stroke-width="2.62502" stroke-miterlimit="1.5" stroke-linecap="round" stroke-linejoin="round"/>
<path d="M313.169 108.642C311.893 108.749 310.798 107.598 309.46 108.49C305.341 111.236 306.657 122.022 308.156 125.767C314.39 141.352 324.382 154.133 333.852 168.103C337.521 173.518 348.348 188.215 350.946 191.247" stroke="#320078" stroke-width="2.62502" stroke-miterlimit="1.5" stroke-linecap="round" stroke-linejoin="round"/>
<path d="M454.022 221.249C433.304 235.812 415.792 246.691 396.368 263.472C390.071 268.91 384.434 275.201 378.563 281.046C373.38 286.205 368.894 293.993 369.506 300.807C369.764 303.687 374.004 307.696 377.508 307.64" stroke="#320078" stroke-width="2.62502" stroke-miterlimit="1.5" stroke-linecap="round" stroke-linejoin="round"/>
<path d="M395.204 282.104C394.798 281.663 393.936 282.854 393.532 283.255C391.741 285.032 390.15 286.881 388.607 288.844C384.92 293.535 377.981 301.798 379.159 308.121C379.654 310.778 382.053 311.394 384.427 312.082C385.368 312.358 386.647 312.502 388.14 311.519" stroke="#320078" stroke-width="2.62502" stroke-miterlimit="1.5" stroke-linecap="round" stroke-linejoin="round"/>
<path d="M405.456 286.307C398.412 292.338 392.512 302.381 389.024 311.04C388.032 313.504 390.371 317.955 393.2 317.601C397.041 317.119 399.062 314.051 401.396 310.574" stroke="#320078" stroke-width="2.62502" stroke-miterlimit="1.5" stroke-linecap="round" stroke-linejoin="round"/>
<path d="M412.574 292.263C410.738 294.673 409.495 296.672 408.046 299.048C405.73 302.844 402.42 308.038 401.847 312.37C401.026 318.565 407.545 323.498 413.083 319.842C415.864 318.007 415.844 312.976 416.198 310.303C416.686 306.609 420.035 300.899 422.671 297.844C426.709 293.162 431.598 288.472 436.091 284.566C438.037 282.877 440.958 278.813 442.354 275.467C444.996 269.139 446.806 261.398 451.347 255.45C455.856 249.542 460.588 243.788 465.106 237.869C467.344 234.937 476.008 222.739 479.039 218.849" stroke="#320078" stroke-width="2.62502" stroke-miterlimit="1.5" stroke-linecap="round" stroke-linejoin="round"/>
<path d="M381.245 275.051C375.721 271.913 371.415 269.19 367.307 266.73C365.936 265.908 362.158 263.603 361.922 263.707C358.247 265.346 354.604 268.628 351.357 270.91C342.442 277.175 334.664 284.706 326.683 291.956C324.261 294.156 321.658 296.273 319.191 298.391C318.899 298.643 316.967 300.443 317.083 301.065C317.217 301.783 319.037 302.547 319.695 302.947C322.041 304.374 326.58 307.677 328.838 309.051" stroke="#320078" stroke-width="2.62502" stroke-miterlimit="1.5" stroke-linecap="round" stroke-linejoin="round"/>
<path d="M363.253 264.667C358.696 271.51 350.517 284.394 347.018 290.959C344.134 296.368 340.821 301.508 338.087 306.967C336.705 309.724 332.9 317.198 332.698 317.833C332.657 317.967 340.685 322.395 343.197 323.924C353.589 330.248 363.497 337.391 374.516 342.687C383.127 346.827 391.503 351.503 399.966 355.876C402.284 357.074 408.101 360.036 408.395 360.029C408.638 360.023 410.254 357.314 410.85 356.165C412.979 352.068 415.595 347.952 417.628 343.762C422.073 334.605 427.305 325.769 431.416 316.417C432.307 314.389 435.537 307.933 435.438 307.697C435.274 307.295 432.899 305.723 432.308 305.354C428.379 302.903 424.878 300.708 422.401 299.2" stroke="#320078" stroke-width="2.62502" stroke-miterlimit="1.5" stroke-linecap="round" stroke-linejoin="round"/>
<path d="M395.595 262.389C391.875 263.095 390.014 264.014 387.808 264.813C382.224 266.836 378.443 270.144 373.536 271.51" stroke="#320078" stroke-width="2.62502" stroke-miterlimit="1.5" stroke-linecap="round" stroke-linejoin="round"/>
<path d="M345.439 358.796C345.192 359.77 344.83 361.253 344.596 362.238C344.41 363.019 343.797 364.709 343.668 364.77C343.482 364.859 337.56 366.251 335.596 366.593C330.569 367.473 328.188 368.323 322.766 369.365C321.734 369.564 318.821 370.008 318.165 370.966C316.562 373.315 316.684 379.6 316.662 382.427C316.646 384.27 316.833 386.757 317.531 388.216C318.04 389.273 332.928 389.198 333.834 388.756C334.233 388.561 335.222 387.338 335.513 387.005" stroke="#320078" stroke-width="2.62502" stroke-miterlimit="1.5" stroke-linecap="round" stroke-linejoin="round"/>
<path d="M335.509 387.068C336.462 385.977 338.715 383.282 339.068 383.4C339.448 383.529 341.607 388.234 341.851 388.926C341.999 389.338 352.292 388.903 352.583 388.76C352.876 388.616 356.466 382.664 356.641 382.754C356.949 382.913 359.256 388.804 359.346 388.898C359.786 389.351 370.52 389.164 370.575 388.623C370.744 386.915 370.884 381.255 370.648 378.429C370.097 371.854 369.608 363.771 369.321 358.42" stroke="#320078" stroke-width="2.62502" stroke-miterlimit="1.5" stroke-linecap="round" stroke-linejoin="round"/>
<path d="M318.81 377.183C324.427 376.532 330.234 376.192 335.93 375.827C340.867 375.51 345.835 375.83 350.78 375.668C355.664 375.506 359.808 376.109 364.297 375.686C365.794 375.546 368.775 375.535 370.187 375.55" stroke="#320078" stroke-width="2.62502" stroke-miterlimit="1.5" stroke-linecap="round" stroke-linejoin="round"/>
<path d="M331.418 367.449C331.766 367.811 333.371 369.596 333.946 370.622C334.475 371.561 335.204 373.548 335.187 374.616" stroke="#320078" stroke-width="2.62502" stroke-miterlimit="1.5" stroke-linecap="round" stroke-linejoin="round"/>
<path d="M341.004 365.533C341.444 365.988 343.243 367.858 343.75 368.929C344.433 370.371 344.927 371.656 345.335 373.179C345.44 373.574 345.722 374.118 345.716 374.495" stroke="#320078" stroke-width="2.62502" stroke-miterlimit="1.5" stroke-linecap="round" stroke-linejoin="round"/>
<path d="M456.536 338.739C454.49 338.679 433.601 338.325 422.301 338.283" stroke="#320078" stroke-width="2.62502" stroke-miterlimit="1.5" stroke-linecap="round" stroke-linejoin="round"/>
<path d="M456.456 338.922C456.438 340.264 455.512 415.162 455.512 430.255" stroke="#320078" stroke-width="2.62502" stroke-miterlimit="1.5" stroke-linecap="round" stroke-linejoin="round"/>
<path d="M414.866 352.76C414.798 358.844 414.671 365.689 414.561 365.779C414.305 365.99 378.019 365.4 377.977 365.747C377.908 366.324 377.434 394.477 377.515 394.867C377.734 395.922 332.49 395.208 331.944 395.512C331.463 395.779 331.618 428.079 331.698 429.415" stroke="#320078" stroke-width="2.62502" stroke-miterlimit="1.5" stroke-linecap="round" stroke-linejoin="round"/>
<path d="M336.932 7.55762C337.147 7.69023 338.005 8.33117 338.191 8.51601C338.883 9.20718 339.664 10.0892 340.152 10.9693C341.818 13.969 341.38 17.6097 341.38 20.7803" stroke="#320078" stroke-width="2.62502" stroke-miterlimit="1.5" stroke-linecap="round" stroke-linejoin="round"/>
<path d="M345.873 4.89648C346.176 5.0733 346.886 5.60373 347.083 5.73433C348.085 6.4034 349.236 7.46828 349.779 8.55527C351.175 11.3461 351.258 14.3237 351.374 17.0181" stroke="#320078" stroke-width="2.62502" stroke-miterlimit="1.5" stroke-linecap="round" stroke-linejoin="round"/>
</svg>
