<svg width="119" height="32" viewBox="0 0 119 32" fill="none" xmlns="http://www.w3.org/2000/svg">
<path fill-rule="evenodd" clip-rule="evenodd" d="M28 20L21 24V16L14 11.955L21 8L28 12V20Z" fill="#230078"/>
<path fill-rule="evenodd" clip-rule="evenodd" d="M14 12L7 16V8L0 4L7 0L14 4V12Z" fill="#230078"/>
<path fill-rule="evenodd" clip-rule="evenodd" d="M14 28L7 32V24L0 20L7 16L14 20V28Z" fill="#230078"/>
<path fill-rule="evenodd" clip-rule="evenodd" d="M49.0381 19.3709C48.6425 19.7815 48.1644 20.1041 47.6351 20.3178C47.1058 20.5314 46.5372 20.6312 45.9665 20.6107H43.089V11.5926H45.969C46.5397 11.5723 47.1082 11.6722 47.6375 11.8858C48.1668 12.0994 48.6449 12.422 49.0406 12.8324C49.8282 13.6688 50.2219 14.7582 50.2219 16.1004C50.2219 17.4344 49.829 18.5329 49.0406 19.3635L49.0381 19.3709ZM51.1223 10.7818C50.4616 10.0848 49.6616 9.5337 48.7739 9.16425C47.8863 8.7948 46.9307 8.61519 45.969 8.63703H40V23.5738H45.969C46.9315 23.5948 47.8877 23.4138 48.7754 23.0426C49.6632 22.6714 50.4628 22.1183 51.1223 21.419C51.8023 20.7139 52.3356 19.8816 52.6916 18.97C53.0476 18.0585 53.2192 17.0858 53.1965 16.1079C53.2199 15.1288 53.0487 14.1547 52.6927 13.2419C52.3367 12.329 51.8029 11.4955 51.1223 10.7893" fill="#230078"/>
<path fill-rule="evenodd" clip-rule="evenodd" d="M60.0882 21.0352C59.7195 21.0482 59.352 20.9844 59.0094 20.8478C58.6668 20.7112 58.3566 20.5047 58.0986 20.2417C57.5846 19.6911 57.2989 18.9668 57.2989 18.2147C57.2989 17.4625 57.5846 16.7383 58.0986 16.1877C58.3566 15.9247 58.6668 15.7182 59.0094 15.5816C59.352 15.445 59.7195 15.3811 60.0882 15.3942C60.4568 15.383 60.8237 15.4476 61.1661 15.5841C61.5084 15.7207 61.8188 15.9261 62.0779 16.1877C62.5919 16.7383 62.8776 17.4625 62.8776 18.2147C62.8776 18.9668 62.5919 19.6911 62.0779 20.2417C61.8188 20.5033 61.5084 20.7087 61.1661 20.8452C60.8237 20.9818 60.4568 21.0464 60.0882 21.0352V21.0352ZM64.1248 14.1991C63.3306 13.4002 62.3159 12.855 61.2099 12.633C60.1039 12.4109 58.9567 12.5221 57.9143 12.9524C56.8719 13.3827 55.9815 14.1125 55.3566 15.049C54.7317 15.9855 54.4005 17.0862 54.4052 18.211C54.3894 18.9655 54.5248 19.7155 54.8035 20.4172C55.0822 21.1189 55.4985 21.758 56.0281 22.2972C56.5578 22.8364 57.19 23.2647 57.8878 23.5572C58.5857 23.8496 59.335 24.0002 60.092 24.0002C60.8489 24.0002 61.5983 23.8496 62.2961 23.5572C62.9939 23.2647 63.6262 22.8364 64.1558 22.2972C64.6854 21.758 65.1018 21.1189 65.3805 20.4172C65.6591 19.7155 65.7945 18.9655 65.7787 18.211C65.7908 17.4653 65.6504 16.725 65.366 16.0353C65.0817 15.3455 64.6593 14.7207 64.1248 14.1991" fill="#230078"/>
<path fill-rule="evenodd" clip-rule="evenodd" d="M77.2989 12.8574L73.2052 23.574H69.9744L65.8906 12.8574H69.0841L71.5861 20.058L74.1055 12.8574H77.2989Z" fill="#230078"/>
<path fill-rule="evenodd" clip-rule="evenodd" d="M80.4302 17.1369C80.5671 16.5776 80.8842 16.0785 81.333 15.7161C81.8438 15.3429 82.466 15.1525 83.0988 15.1756C83.6772 15.1684 84.2424 15.3476 84.7104 15.6864C85.1752 16.0446 85.4948 16.5578 85.6108 17.132L80.4302 17.1369ZM87.006 14.1987C86.5084 13.667 85.9032 13.2466 85.2305 12.9654C84.5579 12.6841 83.833 12.5484 83.1038 12.5671C81.4524 12.5671 80.077 13.1077 79.02 14.1813C78.4964 14.7133 78.0855 15.3447 77.8116 16.0382C77.5377 16.7317 77.4065 17.473 77.4258 18.218C77.405 18.9673 77.5371 19.7131 77.8142 20.4099C78.0912 21.1068 78.5074 21.7403 79.0374 22.272C80.1068 23.3283 81.5344 23.8689 83.3102 23.8689C85.367 23.8689 86.9414 23.1027 87.9909 21.5753L88.0531 21.4984L85.6978 20.1496L85.6555 20.2091C85.1382 20.8885 84.3598 21.2306 83.3525 21.2306C81.8055 21.2306 80.8654 20.6355 80.4849 19.4255H88.4187L88.4361 19.3462C88.5058 18.9724 88.5416 18.5932 88.5431 18.213C88.5809 16.7253 88.0286 15.2828 87.006 14.1987V14.1987Z" fill="#230078"/>
<path fill-rule="evenodd" clip-rule="evenodd" d="M93.7908 15.647V19.9465C93.7778 20.079 93.7932 20.2128 93.8361 20.339C93.879 20.4651 93.9483 20.5807 94.0395 20.678C94.251 20.8486 94.5137 20.9437 94.7857 20.9482C94.9349 20.9482 95.1015 20.9482 95.2831 20.9482C95.5318 20.9482 95.8004 20.9482 96.0989 20.921H96.1859V23.5641H96.1063C95.6359 23.6204 95.1625 23.6494 94.6887 23.6509C93.5247 23.6509 92.6518 23.4402 92.0822 23.0211C91.2863 22.4459 90.8909 21.4094 90.8909 19.9366V15.647H89.0455V12.8575H90.8909V10.7474L93.7958 9.86719V12.8575H96.1859V15.647H93.7908Z" fill="#230078"/>
<path fill-rule="evenodd" clip-rule="evenodd" d="M102.804 21.1042C102.428 21.1154 102.054 21.0492 101.705 20.9097C101.355 20.7701 101.039 20.5603 100.775 20.2933C100.506 20.0187 100.296 19.6925 100.157 19.3345C100.019 18.9764 99.9546 18.594 99.9688 18.2105C99.9553 17.8282 100.02 17.4472 100.158 17.0905C100.297 16.7337 100.506 16.4087 100.775 16.1352C101.039 15.8682 101.355 15.6584 101.705 15.5189C102.054 15.3793 102.428 15.3131 102.804 15.3244C103.183 15.314 103.559 15.3805 103.911 15.5199C104.263 15.6593 104.583 15.8686 104.851 16.1352C105.119 16.409 105.329 16.734 105.467 17.0906C105.606 17.4473 105.672 17.8282 105.659 18.2105C105.674 18.594 105.609 18.9764 105.471 19.3345C105.332 19.6925 105.122 20.0187 104.853 20.2933C104.585 20.5593 104.265 20.7682 103.913 20.9076C103.561 21.0469 103.185 21.1138 102.807 21.1042H102.804ZM105.659 12.8572V13.9507C104.836 13.0283 103.707 12.5646 102.299 12.5646C101.602 12.5587 100.911 12.7014 100.274 12.9832C99.6367 13.265 99.067 13.6794 98.6034 14.1986C97.584 15.2839 97.0314 16.724 97.0639 18.2105C97.031 19.6993 97.5836 21.1419 98.6034 22.2299C99.0655 22.7507 99.6343 23.1665 100.272 23.4493C100.909 23.732 101.599 23.8751 102.297 23.8688C103.704 23.8688 104.834 23.4076 105.657 22.4828V23.5713H108.562V12.8572H105.659Z" fill="#230078"/>
<path fill-rule="evenodd" clip-rule="evenodd" d="M111.071 11.2432C110.903 11.0832 110.77 10.8907 110.68 10.6774C110.59 10.4642 110.544 10.2349 110.546 10.0035C110.545 9.77219 110.591 9.54312 110.682 9.33006C110.772 9.11699 110.904 8.92433 111.071 8.76368C111.23 8.59348 111.422 8.45832 111.637 8.36692C111.851 8.27552 112.082 8.22992 112.315 8.23306C112.666 8.22892 113.011 8.3295 113.304 8.52191C113.598 8.71433 113.827 8.98979 113.963 9.31298C114.098 9.63616 114.134 9.99234 114.065 10.3358C113.996 10.6793 113.825 10.9944 113.576 11.2407C113.411 11.4068 113.215 11.5381 112.998 11.6267C112.781 11.7154 112.549 11.7595 112.315 11.7565C112.083 11.7584 111.854 11.7137 111.64 11.6251C111.426 11.5365 111.233 11.4058 111.071 11.2407" fill="#230078"/>
<path fill-rule="evenodd" clip-rule="evenodd" d="M110.862 23.574H113.775V12.8574H110.862V23.574Z" fill="#230078"/>
<path fill-rule="evenodd" clip-rule="evenodd" d="M116.095 23.574H119V8H116.095V23.574Z" fill="#230078"/>
</svg>
