<svg width="1440" height="34" viewBox="0 0 1440 34" fill="none" xmlns="http://www.w3.org/2000/svg">
<g clip-path="url(#clip0_106:92)">
<path d="M116.5 27C76.9566 27 22.5 26.8334 0 29V-560.5C22.5 -562.667 76.9566 -562.5 116.5 -562.5C182.5 -562.5 258.583 -570.411 339 -578.5C423.5 -587 559 -590 655.5 -586C755.733 -581.845 898.29 -567.067 1017 -575.5C1108.5 -582 1271.5 -605.5 1440 -556V33.5C1271.5 -16 1108.5 7.5 1017 14C898.29 22.433 755.733 7.65479 655.5 3.5C559 -0.5 423.5 2.5 339 11C258.583 19.0892 182.5 27 116.5 27Z" fill="#FDF4E6"/>
</g>
<defs>
<clipPath id="clip0_106:92">
<rect width="1440" height="34" fill="white"/>
</clipPath>
</defs>
</svg>
